solid OpenSCAD_Model
  facet normal -0.991445 2.89827e-17 0.130526
    outer loop
      vertex -5 -7 1.55431e-15
      vertex -4.82963 -7 1.2941
      vertex -5 -4.2 9.32587e-16
    endloop
  endfacet
  facet normal -0.991445 2.89827e-17 0.130526
    outer loop
      vertex -5 -4.2 9.32587e-16
      vertex -4.82963 -7 1.2941
      vertex -4.82963 -4.2 1.2941
    endloop
  endfacet
  facet normal 0 -1 2.22045e-16
    outer loop
      vertex -4.82963 -7 1.2941
      vertex -5 -7 1.55431e-15
      vertex -3 -7 1.55431e-15
    endloop
  endfacet
  facet normal 0 -1 2.22045e-16
    outer loop
      vertex -3.5628 -7 3.5
      vertex -4.82963 -7 1.2941
      vertex -3 -7 3.5
    endloop
  endfacet
  facet normal 0 -1 2.22045e-16
    outer loop
      vertex -3 -7 3.5
      vertex -4.82963 -7 1.2941
      vertex -3 -7 1.55431e-15
    endloop
  endfacet
  facet normal 0 -1 2.22045e-16
    outer loop
      vertex -4.33013 -7 2.5
      vertex -4.82963 -7 1.2941
      vertex -3.5628 -7 3.5
    endloop
  endfacet
  facet normal 0 -1 0
    outer loop
      vertex -3 -7 1.55431e-15
      vertex -5 -7 1.55431e-15
      vertex -4.82963 -7 -1.29409
    endloop
  endfacet
  facet normal 0 -1 0
    outer loop
      vertex -3.5628 -7 -3.5
      vertex -3 -7 1.55431e-15
      vertex -4.33013 -7 -2.5
    endloop
  endfacet
  facet normal 0 -1 0
    outer loop
      vertex -4.33013 -7 -2.5
      vertex -3 -7 1.55431e-15
      vertex -4.82963 -7 -1.29409
    endloop
  endfacet
  facet normal 0 -1 0
    outer loop
      vertex 1.55 -7 1.55431e-15
      vertex 1.34234 -7 -0.775
      vertex 10.0904 -7 3.46134e-08
    endloop
  endfacet
  facet normal 0 -1 0
    outer loop
      vertex 1.27304 -7 -3.5
      vertex -3 -7 1.55431e-15
      vertex -3.5628 -7 -3.5
    endloop
  endfacet
  facet normal 0 -1 0
    outer loop
      vertex -1.34234 -7 -0.775
      vertex -3 -7 1.55431e-15
      vertex 1.27304 -7 -3.5
    endloop
  endfacet
  facet normal 0 -1 0
    outer loop
      vertex -1.55 -7 1.55431e-15
      vertex -1.34234 -7 0.775
      vertex -3 -7 1.55431e-15
    endloop
  endfacet
  facet normal 0 -1 0
    outer loop
      vertex 0.775 -7 1.34234
      vertex 1.34234 -7 0.775
      vertex 6.77533 -7 1.31591
    endloop
  endfacet
  facet normal 0 -1 0
    outer loop
      vertex -0.775 -7 -1.34234
      vertex -1.34234 -7 -0.775
      vertex 1.27304 -7 -3.5
    endloop
  endfacet
  facet normal 0 -1 0
    outer loop
      vertex -1.55 -7 1.55431e-15
      vertex -3 -7 1.55431e-15
      vertex -1.34234 -7 -0.775
    endloop
  endfacet
  facet normal 0 -1 0
    outer loop
      vertex 1.34234 -7 0.775
      vertex 1.55 -7 1.55431e-15
      vertex 10.0904 -7 3.46134e-08
    endloop
  endfacet
  facet normal 0 -1 0
    outer loop
      vertex 1.27304 -7 3.5
      vertex -1.34234 -7 0.775
      vertex -0.775 -7 1.34234
    endloop
  endfacet
  facet normal 0 -1 0
    outer loop
      vertex 1.27304 -7 3.5
      vertex 0 -7 1.55
      vertex 6.77533 -7 1.31591
    endloop
  endfacet
  facet normal 0 -1 0
    outer loop
      vertex 1.27304 -7 3.5
      vertex -0.775 -7 1.34234
      vertex 0 -7 1.55
    endloop
  endfacet
  facet normal 0 -1 0
    outer loop
      vertex 0 -7 1.55
      vertex 0.775 -7 1.34234
      vertex 6.77533 -7 1.31591
    endloop
  endfacet
  facet normal 0 -1 0
    outer loop
      vertex 10.0904 -7 3.46134e-08
      vertex 1.34234 -7 -0.775
      vertex 1.27304 -7 -3.5
    endloop
  endfacet
  facet normal 0 -1 0
    outer loop
      vertex 1.34234 -7 -0.775
      vertex 0.775 -7 -1.34234
      vertex 1.27304 -7 -3.5
    endloop
  endfacet
  facet normal 0 -1 0
    outer loop
      vertex 0.775 -7 -1.34234
      vertex 0 -7 -1.55
      vertex 1.27304 -7 -3.5
    endloop
  endfacet
  facet normal 0 -1 0
    outer loop
      vertex 0 -7 -1.55
      vertex -0.775 -7 -1.34234
      vertex 1.27304 -7 -3.5
    endloop
  endfacet
  facet normal 0 -1 0
    outer loop
      vertex -3 -7 3.5
      vertex -1.34234 -7 0.775
      vertex 1.27304 -7 3.5
    endloop
  endfacet
  facet normal 0 -1 0
    outer loop
      vertex 1.34234 -7 0.775
      vertex 10.0904 -7 3.46134e-08
      vertex 6.77533 -7 1.31591
    endloop
  endfacet
  facet normal 0 -1 0
    outer loop
      vertex -3 -7 3.5
      vertex -3 -7 1.55431e-15
      vertex -1.34234 -7 0.775
    endloop
  endfacet
  facet normal -0.991445 -2.89827e-17 -0.130526
    outer loop
      vertex -5 -7 1.55431e-15
      vertex -5 -4.2 9.32587e-16
      vertex -4.82963 -7 -1.29409
    endloop
  endfacet
  facet normal -0.991445 -2.89827e-17 -0.130526
    outer loop
      vertex -4.82963 -7 -1.29409
      vertex -5 -4.2 9.32587e-16
      vertex -4.82963 -4.2 -1.29409
    endloop
  endfacet
  facet normal 0 1 0
    outer loop
      vertex -4.33013 -4.2 2.5
      vertex -3.5628 -4.2 3.5
      vertex -4.82963 -4.2 1.2941
    endloop
  endfacet
  facet normal 0 1 0
    outer loop
      vertex -4.82963 -4.2 1.2941
      vertex -3.5628 -4.2 3.5
      vertex 3.5 -4.2 3.5
    endloop
  endfacet
  facet normal 0 1 0
    outer loop
      vertex 0.775 -4.2 1.34234
      vertex 3.5 -4.2 3.5
      vertex 1.17157 -4.2 1.17157
    endloop
  endfacet
  facet normal 0 1 0
    outer loop
      vertex 1.17157 -4.2 1.17157
      vertex 3.5 -4.2 3.5
      vertex 3.5 -4.2 -3.5
    endloop
  endfacet
  facet normal 0 1 0
    outer loop
      vertex 1.34234 -4.2 -0.775
      vertex 3.5 -4.2 -3.5
      vertex 1.17157 -4.2 -1.17157
    endloop
  endfacet
  facet normal 0 1 0
    outer loop
      vertex -1.34234 -4.2 -0.775
      vertex -4.82963 -4.2 1.2941
      vertex -1.55 -4.2 9.32587e-16
    endloop
  endfacet
  facet normal 0 1 0
    outer loop
      vertex -0.775 -4.2 -1.34234
      vertex 3.5 -4.2 -3.5
      vertex -3.5628 -4.2 -3.5
    endloop
  endfacet
  facet normal 0 1 0
    outer loop
      vertex -4.82963 -4.2 1.2941
      vertex -3.5628 -4.2 -3.5
      vertex -4.33013 -4.2 -2.5
    endloop
  endfacet
  facet normal 0 1 0
    outer loop
      vertex -4.82963 -4.2 1.2941
      vertex -4.33013 -4.2 -2.5
      vertex -4.82963 -4.2 -1.29409
    endloop
  endfacet
  facet normal 0 1 0
    outer loop
      vertex -4.82963 -4.2 1.2941
      vertex -4.82963 -4.2 -1.29409
      vertex -5 -4.2 9.32587e-16
    endloop
  endfacet
  facet normal 0 1 0
    outer loop
      vertex 0.775 -4.2 -1.34234
      vertex 3.5 -4.2 -3.5
      vertex 0 -4.2 -1.55
    endloop
  endfacet
  facet normal 0 1 0
    outer loop
      vertex -4.82963 -4.2 1.2941
      vertex -1.34234 -4.2 -0.775
      vertex -3.5628 -4.2 -3.5
    endloop
  endfacet
  facet normal 0 1 0
    outer loop
      vertex 0 -4.2 -1.55
      vertex 3.5 -4.2 -3.5
      vertex -0.775 -4.2 -1.34234
    endloop
  endfacet
  facet normal 0 1 0
    outer loop
      vertex -1.34234 -4.2 -0.775
      vertex -0.775 -4.2 -1.34234
      vertex -3.5628 -4.2 -3.5
    endloop
  endfacet
  facet normal 0 1 0
    outer loop
      vertex 1.55 -4.2 9.32587e-16
      vertex 3.5 -4.2 -3.5
      vertex 1.34234 -4.2 -0.775
    endloop
  endfacet
  facet normal 0 1 0
    outer loop
      vertex 1.34234 -4.2 0.775
      vertex 3.5 -4.2 -3.5
      vertex 1.55 -4.2 9.32587e-16
    endloop
  endfacet
  facet normal 0 1 0
    outer loop
      vertex 1.17157 -4.2 1.17157
      vertex 3.5 -4.2 -3.5
      vertex 1.34234 -4.2 0.775
    endloop
  endfacet
  facet normal 0 1 0
    outer loop
      vertex 0 -4.2 1.55
      vertex 3.5 -4.2 3.5
      vertex 0.775 -4.2 1.34234
    endloop
  endfacet
  facet normal 0 1 0
    outer loop
      vertex -1.34234 -4.2 0.775
      vertex -4.82963 -4.2 1.2941
      vertex -0.775 -4.2 1.34234
    endloop
  endfacet
  facet normal 0 1 0
    outer loop
      vertex -4.82963 -4.2 1.2941
      vertex 3.5 -4.2 3.5
      vertex 0 -4.2 1.55
    endloop
  endfacet
  facet normal 0 1 0
    outer loop
      vertex -4.82963 -4.2 1.2941
      vertex 0 -4.2 1.55
      vertex -0.775 -4.2 1.34234
    endloop
  endfacet
  facet normal 0 1 0
    outer loop
      vertex 0.775 -4.2 1.34234
      vertex 1.17157 -4.2 1.17157
      vertex 1.34234 -4.2 0.775
    endloop
  endfacet
  facet normal 0 1 0
    outer loop
      vertex -1.34234 -4.2 0.775
      vertex -1.55 -4.2 9.32587e-16
      vertex -4.82963 -4.2 1.2941
    endloop
  endfacet
  facet normal 0 1 0
    outer loop
      vertex 3.5 -4.2 -3.5
      vertex 0.775 -4.2 -1.34234
      vertex 1.17157 -4.2 -1.17157
    endloop
  endfacet
  facet normal 0 1 0
    outer loop
      vertex 1.34234 -4.2 -0.775
      vertex 1.17157 -4.2 -1.17157
      vertex 0.775 -4.2 -1.34234
    endloop
  endfacet
  facet normal -0.92388 8.49728e-17 0.382683
    outer loop
      vertex -4.82963 -7 1.2941
      vertex -4.33013 -7 2.5
      vertex -4.82963 -4.2 1.2941
    endloop
  endfacet
  facet normal -0.92388 8.49728e-17 0.382683
    outer loop
      vertex -4.82963 -4.2 1.2941
      vertex -4.33013 -7 2.5
      vertex -4.33013 -4.2 2.5
    endloop
  endfacet
  facet normal -0.793353 1.35172e-16 0.608761
    outer loop
      vertex -4.33013 -7 2.5
      vertex -3.5628 -7 3.5
      vertex -4.33013 -4.2 2.5
    endloop
  endfacet
  facet normal -0.793353 1.35172e-16 0.608761
    outer loop
      vertex -4.33013 -4.2 2.5
      vertex -3.5628 -7 3.5
      vertex -3.5628 -4.2 3.5
    endloop
  endfacet
  facet normal 0 0 1
    outer loop
      vertex -3.5628 -4.2 3.5
      vertex -3.5628 -7 3.5
      vertex -3 -7 3.5
    endloop
  endfacet
  facet normal 0 0 1
    outer loop
      vertex 1.27304 -7 3.5
      vertex -3.5628 -4.2 3.5
      vertex -3 -7 3.5
    endloop
  endfacet
  facet normal 0 0 1
    outer loop
      vertex 3.5 4.2 3.5
      vertex 8.64393 2.1 3.5
      vertex 9 2.02073 3.5
    endloop
  endfacet
  facet normal 0 0 1
    outer loop
      vertex 23 2.02073 3.5
      vertex 1.27304 7 3.5
      vertex 9 2.02073 3.5
    endloop
  endfacet
  facet normal 0 0 1
    outer loop
      vertex 1.27304 7 3.5
      vertex -3.5628 7 3.5
      vertex -3.5628 4.2 3.5
    endloop
  endfacet
  facet normal 0 0 1
    outer loop
      vertex 9 2.02073 3.5
      vertex 1.27304 7 3.5
      vertex 3.5 4.2 3.5
    endloop
  endfacet
  facet normal 0 0 1
    outer loop
      vertex 8.64393 2.1 3.5
      vertex 9 -2.02073 3.5
      vertex 9 2.02073 3.5
    endloop
  endfacet
  facet normal 0 0 1
    outer loop
      vertex 23 -2.02073 3.5
      vertex 9 -2.02073 3.5
      vertex 8.64393 -2.1 3.5
    endloop
  endfacet
  facet normal 0 0 1
    outer loop
      vertex 1.27304 -7 3.5
      vertex 23 -2.02073 3.5
      vertex 3.5 -4.2 3.5
    endloop
  endfacet
  facet normal 0 0 1
    outer loop
      vertex 1.27304 -7 3.5
      vertex 3.5 -4.2 3.5
      vertex -3.5628 -4.2 3.5
    endloop
  endfacet
  facet normal 0 0 1
    outer loop
      vertex -3.5628 4.2 3.5
      vertex 3.5 4.2 3.5
      vertex 1.27304 7 3.5
    endloop
  endfacet
  facet normal 0 0 1
    outer loop
      vertex 8.64393 2.1 3.5
      vertex 8.64393 -2.1 3.5
      vertex 9 -2.02073 3.5
    endloop
  endfacet
  facet normal 0 0 1
    outer loop
      vertex 8.64393 -2.1 3.5
      vertex 3.5 -4.2 3.5
      vertex 23 -2.02073 3.5
    endloop
  endfacet
  facet normal 0.194674 -0.849457 0.490434
    outer loop
      vertex 23 -2.02073 3.5
      vertex 1.27304 -7 3.5
      vertex 6.77533 -7 1.31591
    endloop
  endfacet
  facet normal 0.194674 -0.849457 0.490434
    outer loop
      vertex 23 -2.02073 3.5
      vertex 6.77533 -7 1.31591
      vertex 10.0904 -7 3.46134e-08
    endloop
  endfacet
  facet normal 0.194674 -0.849457 0.490434
    outer loop
      vertex 23 -4.04145 5.00877e-08
      vertex 23 -2.02073 3.5
      vertex 10.0904 -7 3.46134e-08
    endloop
  endfacet
  facet normal 0.194674 -0.849457 -0.490434
    outer loop
      vertex 10.0904 -7 3.46134e-08
      vertex 1.27304 -7 -3.5
      vertex 23 -2.02073 -3.5
    endloop
  endfacet
  facet normal 0.194674 -0.849457 -0.490434
    outer loop
      vertex 23 -4.04145 5.00877e-08
      vertex 10.0904 -7 3.46134e-08
      vertex 23 -2.02073 -3.5
    endloop
  endfacet
  facet normal 0 0 -1
    outer loop
      vertex -3.5628 7 -3.5
      vertex -3 7 -3.5
      vertex -3.5628 4.2 -3.5
    endloop
  endfacet
  facet normal 0 0 -1
    outer loop
      vertex -3.5628 4.2 -3.5
      vertex -3 7 -3.5
      vertex 1.27304 7 -3.5
    endloop
  endfacet
  facet normal 0 0 -1
    outer loop
      vertex 3.5 4.2 -3.5
      vertex 1.27304 7 -3.5
      vertex 23 2.02073 -3.5
    endloop
  endfacet
  facet normal 0 0 -1
    outer loop
      vertex 8.64393 2.1 -3.5
      vertex 23 2.02073 -3.5
      vertex 9 2.02073 -3.5
    endloop
  endfacet
  facet normal 0 0 -1
    outer loop
      vertex 3.5 4.2 -3.5
      vertex 23 2.02073 -3.5
      vertex 8.64393 2.1 -3.5
    endloop
  endfacet
  facet normal 0 0 -1
    outer loop
      vertex 9 -2.02073 -3.5
      vertex 23 -2.02073 -3.5
      vertex 1.27304 -7 -3.5
    endloop
  endfacet
  facet normal 0 0 -1
    outer loop
      vertex -3.5628 -4.2 -3.5
      vertex 1.27304 -7 -3.5
      vertex -3.5628 -7 -3.5
    endloop
  endfacet
  facet normal 0 0 -1
    outer loop
      vertex 8.64393 2.1 -3.5
      vertex 9 -2.02073 -3.5
      vertex 8.64393 -2.1 -3.5
    endloop
  endfacet
  facet normal 0 0 -1
    outer loop
      vertex 9 -2.02073 -3.5
      vertex 1.27304 -7 -3.5
      vertex 3.5 -4.2 -3.5
    endloop
  endfacet
  facet normal 0 0 -1
    outer loop
      vertex 8.64393 -2.1 -3.5
      vertex 9 -2.02073 -3.5
      vertex 3.5 -4.2 -3.5
    endloop
  endfacet
  facet normal 0 0 -1
    outer loop
      vertex 8.64393 2.1 -3.5
      vertex 9 2.02073 -3.5
      vertex 9 -2.02073 -3.5
    endloop
  endfacet
  facet normal 0 0 -1
    outer loop
      vertex -3.5628 4.2 -3.5
      vertex 1.27304 7 -3.5
      vertex 3.5 4.2 -3.5
    endloop
  endfacet
  facet normal 0 0 -1
    outer loop
      vertex 3.5 -4.2 -3.5
      vertex 1.27304 -7 -3.5
      vertex -3.5628 -4.2 -3.5
    endloop
  endfacet
  facet normal -0.793353 -1.35172e-16 -0.608761
    outer loop
      vertex -4.33013 -7 -2.5
      vertex -4.33013 -4.2 -2.5
      vertex -3.5628 -7 -3.5
    endloop
  endfacet
  facet normal -0.793353 -1.35172e-16 -0.608761
    outer loop
      vertex -3.5628 -7 -3.5
      vertex -4.33013 -4.2 -2.5
      vertex -3.5628 -4.2 -3.5
    endloop
  endfacet
  facet normal -0.92388 -8.49728e-17 -0.382683
    outer loop
      vertex -4.82963 -7 -1.29409
      vertex -4.82963 -4.2 -1.29409
      vertex -4.33013 -7 -2.5
    endloop
  endfacet
  facet normal -0.92388 -8.49728e-17 -0.382683
    outer loop
      vertex -4.33013 -7 -2.5
      vertex -4.82963 -4.2 -1.29409
      vertex -4.33013 -4.2 -2.5
    endloop
  endfacet
  facet normal 0.965926 5.74695e-17 0.258819
    outer loop
      vertex -1.34234 -7 -0.775
      vertex -1.34234 -4.2 -0.775
      vertex -1.55 -4.2 9.32587e-16
    endloop
  endfacet
  facet normal 0.965926 5.74695e-17 0.258819
    outer loop
      vertex -1.55 -7 1.55431e-15
      vertex -1.34234 -7 -0.775
      vertex -1.55 -4.2 9.32587e-16
    endloop
  endfacet
  facet normal 0.707107 1.57009e-16 0.707107
    outer loop
      vertex -0.775 -7 -1.34234
      vertex -0.775 -4.2 -1.34234
      vertex -1.34234 -4.2 -0.775
    endloop
  endfacet
  facet normal 0.707107 1.57009e-16 0.707107
    outer loop
      vertex -1.34234 -7 -0.775
      vertex -0.775 -7 -1.34234
      vertex -1.34234 -4.2 -0.775
    endloop
  endfacet
  facet normal 0.258819 2.14479e-16 0.965926
    outer loop
      vertex 0 -7 -1.55
      vertex 0 -4.2 -1.55
      vertex -0.775 -4.2 -1.34234
    endloop
  endfacet
  facet normal 0.258819 2.14479e-16 0.965926
    outer loop
      vertex -0.775 -7 -1.34234
      vertex 0 -7 -1.55
      vertex -0.775 -4.2 -1.34234
    endloop
  endfacet
  facet normal -0.258819 2.14479e-16 0.965926
    outer loop
      vertex 0.775 -7 -1.34234
      vertex 0.775 -4.2 -1.34234
      vertex 0 -4.2 -1.55
    endloop
  endfacet
  facet normal -0.258819 2.14479e-16 0.965926
    outer loop
      vertex 0 -7 -1.55
      vertex 0.775 -7 -1.34234
      vertex 0 -4.2 -1.55
    endloop
  endfacet
  facet normal -0.707107 1.57009e-16 0.707107
    outer loop
      vertex 1.34234 -4.2 -0.775
      vertex 0.775 -4.2 -1.34234
      vertex 1.34234 -7 -0.775
    endloop
  endfacet
  facet normal -0.707107 1.57009e-16 0.707107
    outer loop
      vertex 1.34234 -7 -0.775
      vertex 0.775 -4.2 -1.34234
      vertex 0.775 -7 -1.34234
    endloop
  endfacet
  facet normal -0.965926 5.74695e-17 0.258819
    outer loop
      vertex 1.55 -4.2 9.32587e-16
      vertex 1.34234 -4.2 -0.775
      vertex 1.55 -7 1.55431e-15
    endloop
  endfacet
  facet normal -0.965926 5.74695e-17 0.258819
    outer loop
      vertex 1.55 -7 1.55431e-15
      vertex 1.34234 -4.2 -0.775
      vertex 1.34234 -7 -0.775
    endloop
  endfacet
  facet normal -0.965926 -5.74695e-17 -0.258819
    outer loop
      vertex 1.55 -4.2 9.32587e-16
      vertex 1.55 -7 1.55431e-15
      vertex 1.34234 -4.2 0.775
    endloop
  endfacet
  facet normal -0.965926 -5.74695e-17 -0.258819
    outer loop
      vertex 1.34234 -4.2 0.775
      vertex 1.55 -7 1.55431e-15
      vertex 1.34234 -7 0.775
    endloop
  endfacet
  facet normal -0.707107 -1.57009e-16 -0.707107
    outer loop
      vertex 1.34234 -4.2 0.775
      vertex 1.34234 -7 0.775
      vertex 0.775 -4.2 1.34234
    endloop
  endfacet
  facet normal -0.707107 -1.57009e-16 -0.707107
    outer loop
      vertex 0.775 -4.2 1.34234
      vertex 1.34234 -7 0.775
      vertex 0.775 -7 1.34234
    endloop
  endfacet
  facet normal -0.258819 -2.14479e-16 -0.965926
    outer loop
      vertex 0.775 -4.2 1.34234
      vertex 0.775 -7 1.34234
      vertex 0 -4.2 1.55
    endloop
  endfacet
  facet normal -0.258819 -2.14479e-16 -0.965926
    outer loop
      vertex 0 -4.2 1.55
      vertex 0.775 -7 1.34234
      vertex 0 -7 1.55
    endloop
  endfacet
  facet normal 0.258819 -2.14479e-16 -0.965926
    outer loop
      vertex 0 -4.2 1.55
      vertex 0 -7 1.55
      vertex -0.775 -4.2 1.34234
    endloop
  endfacet
  facet normal 0.258819 -2.14479e-16 -0.965926
    outer loop
      vertex -0.775 -4.2 1.34234
      vertex 0 -7 1.55
      vertex -0.775 -7 1.34234
    endloop
  endfacet
  facet normal 0.707107 -1.57009e-16 -0.707107
    outer loop
      vertex -1.34234 -4.2 0.775
      vertex -0.775 -4.2 1.34234
      vertex -0.775 -7 1.34234
    endloop
  endfacet
  facet normal 0.707107 -1.57009e-16 -0.707107
    outer loop
      vertex -1.34234 -7 0.775
      vertex -1.34234 -4.2 0.775
      vertex -0.775 -7 1.34234
    endloop
  endfacet
  facet normal 0.965926 -5.74695e-17 -0.258819
    outer loop
      vertex -1.55 -4.2 9.32587e-16
      vertex -1.34234 -4.2 0.775
      vertex -1.34234 -7 0.775
    endloop
  endfacet
  facet normal 0.965926 -5.74695e-17 -0.258819
    outer loop
      vertex -1.55 -7 1.55431e-15
      vertex -1.55 -4.2 9.32587e-16
      vertex -1.34234 -7 0.775
    endloop
  endfacet
  facet normal -0.353553 0.866025 0.353553
    outer loop
      vertex 8.64393 -2.1 3.5
      vertex 7.13731 -2.1 1.99338
      vertex 3.5 -4.2 3.5
    endloop
  endfacet
  facet normal -0.707107 -3.6203e-08 0.707107
    outer loop
      vertex 7.13731 -2.1 1.99338
      vertex 8.64393 -2.1 3.5
      vertex 8.64393 2.1 3.5
    endloop
  endfacet
  facet normal -0.707107 -3.6203e-08 0.707107
    outer loop
      vertex 7.13731 2.1 1.99338
      vertex 7.13731 -2.1 1.99338
      vertex 8.64393 2.1 3.5
    endloop
  endfacet
  facet normal -0.353553 -0.866025 0.353553
    outer loop
      vertex 7.13731 2.1 1.99338
      vertex 8.64393 2.1 3.5
      vertex 3.5 4.2 3.5
    endloop
  endfacet
  facet normal -0.5 -0.866025 0
    outer loop
      vertex 3.5 4.2 -3.5
      vertex 7.13731 2.1 -1.99338
      vertex 7.13731 2.1 1.99338
    endloop
  endfacet
  facet normal -0.5 -0.866025 0
    outer loop
      vertex 3.5 4.2 3.5
      vertex 3.5 4.2 -3.5
      vertex 7.13731 2.1 1.99338
    endloop
  endfacet
  facet normal 0 -1 0
    outer loop
      vertex -4.82963 4.2 -1.2941
      vertex -4.33013 4.2 -2.5
      vertex -3.5628 4.2 -3.5
    endloop
  endfacet
  facet normal 0 -1 0
    outer loop
      vertex 0 4.2 -1.55
      vertex -4.82963 4.2 -1.2941
      vertex 3.5 4.2 -3.5
    endloop
  endfacet
  facet normal 0 -1 0
    outer loop
      vertex 3.5 4.2 -3.5
      vertex -4.82963 4.2 -1.2941
      vertex -3.5628 4.2 -3.5
    endloop
  endfacet
  facet normal 0 -1 0
    outer loop
      vertex -0.775 4.2 -1.34234
      vertex -1.34234 4.2 -0.775
      vertex -4.82963 4.2 -1.2941
    endloop
  endfacet
  facet normal 0 -1 0
    outer loop
      vertex 3.5 4.2 3.5
      vertex 1.17157 4.2 -1.17157
      vertex 3.5 4.2 -3.5
    endloop
  endfacet
  facet normal 0 -1 0
    outer loop
      vertex -4.33013 4.2 2.5
      vertex -4.82963 4.2 -1.2941
      vertex -3.5628 4.2 3.5
    endloop
  endfacet
  facet normal 0 -1 0
    outer loop
      vertex -4.82963 4.2 1.29409
      vertex -4.82963 4.2 -1.2941
      vertex -4.33013 4.2 2.5
    endloop
  endfacet
  facet normal 0 -1 0
    outer loop
      vertex -5 4.2 -9.32587e-16
      vertex -4.82963 4.2 -1.2941
      vertex -4.82963 4.2 1.29409
    endloop
  endfacet
  facet normal 0 -1 0
    outer loop
      vertex 0.775 4.2 1.34234
      vertex 1.34234 4.2 0.775
      vertex 1.17157 4.2 1.17157
    endloop
  endfacet
  facet normal 0 -1 0
    outer loop
      vertex -3.5628 4.2 3.5
      vertex -4.82963 4.2 -1.2941
      vertex -1.34234 4.2 0.775
    endloop
  endfacet
  facet normal 0 -1 0
    outer loop
      vertex -3.5628 4.2 3.5
      vertex -0.775 4.2 1.34234
      vertex 3.5 4.2 3.5
    endloop
  endfacet
  facet normal 0 -1 0
    outer loop
      vertex -3.5628 4.2 3.5
      vertex -1.34234 4.2 0.775
      vertex -0.775 4.2 1.34234
    endloop
  endfacet
  facet normal 0 -1 0
    outer loop
      vertex -0.775 4.2 1.34234
      vertex 0 4.2 1.55
      vertex 3.5 4.2 3.5
    endloop
  endfacet
  facet normal 0 -1 0
    outer loop
      vertex 3.5 4.2 3.5
      vertex 1.17157 4.2 1.17157
      vertex 1.34234 4.2 0.775
    endloop
  endfacet
  facet normal 0 -1 0
    outer loop
      vertex 3.5 4.2 3.5
      vertex 1.34234 4.2 0.775
      vertex 1.55 4.2 -9.32587e-16
    endloop
  endfacet
  facet normal 0 -1 0
    outer loop
      vertex 3.5 4.2 3.5
      vertex 1.34234 4.2 -0.775
      vertex 1.17157 4.2 -1.17157
    endloop
  endfacet
  facet normal 0 -1 0
    outer loop
      vertex 3.5 4.2 3.5
      vertex 1.55 4.2 -9.32587e-16
      vertex 1.34234 4.2 -0.775
    endloop
  endfacet
  facet normal 0 -1 0
    outer loop
      vertex 1.17157 4.2 -1.17157
      vertex 0.775 4.2 -1.34234
      vertex 3.5 4.2 -3.5
    endloop
  endfacet
  facet normal 0 -1 0
    outer loop
      vertex 0.775 4.2 -1.34234
      vertex 0 4.2 -1.55
      vertex 3.5 4.2 -3.5
    endloop
  endfacet
  facet normal 0 -1 0
    outer loop
      vertex -0.775 4.2 -1.34234
      vertex -4.82963 4.2 -1.2941
      vertex 0 4.2 -1.55
    endloop
  endfacet
  facet normal 0 -1 0
    outer loop
      vertex -1.55 4.2 -9.32587e-16
      vertex -4.82963 4.2 -1.2941
      vertex -1.34234 4.2 -0.775
    endloop
  endfacet
  facet normal 0 -1 0
    outer loop
      vertex 0 4.2 1.55
      vertex 0.775 4.2 1.34234
      vertex 3.5 4.2 3.5
    endloop
  endfacet
  facet normal 0 -1 0
    outer loop
      vertex 1.17157 4.2 1.17157
      vertex 3.5 4.2 3.5
      vertex 0.775 4.2 1.34234
    endloop
  endfacet
  facet normal 0 -1 0
    outer loop
      vertex -1.55 4.2 -9.32587e-16
      vertex -1.34234 4.2 0.775
      vertex -4.82963 4.2 -1.2941
    endloop
  endfacet
  facet normal 0 -1 0
    outer loop
      vertex 1.34234 4.2 -0.775
      vertex 0.775 4.2 -1.34234
      vertex 1.17157 4.2 -1.17157
    endloop
  endfacet
  facet normal -0.793353 1.35172e-16 0.608761
    outer loop
      vertex -4.33013 4.2 2.5
      vertex -3.5628 4.2 3.5
      vertex -4.33013 7 2.5
    endloop
  endfacet
  facet normal -0.793353 1.35172e-16 0.608761
    outer loop
      vertex -4.33013 7 2.5
      vertex -3.5628 4.2 3.5
      vertex -3.5628 7 3.5
    endloop
  endfacet
  facet normal 0 1 0
    outer loop
      vertex -5 7 -1.55431e-15
      vertex -4.82963 7 1.29409
      vertex -3 7 -1.55431e-15
    endloop
  endfacet
  facet normal 0 1 0
    outer loop
      vertex -3 7 -1.55431e-15
      vertex -4.82963 7 1.29409
      vertex -4.33013 7 2.5
    endloop
  endfacet
  facet normal 0 1 0
    outer loop
      vertex -3 7 -1.55431e-15
      vertex -4.33013 7 2.5
      vertex -3.5628 7 3.5
    endloop
  endfacet
  facet normal 0 1 0
    outer loop
      vertex -3 7 -1.55431e-15
      vertex -3.5628 7 3.5
      vertex 1.27304 7 3.5
    endloop
  endfacet
  facet normal 0 1 0
    outer loop
      vertex 1.55 7 -1.55431e-15
      vertex 1.27304 7 3.5
      vertex 10.0904 7 -3.46134e-08
    endloop
  endfacet
  facet normal 0 1 0
    outer loop
      vertex -1.34234 7 -0.775
      vertex -3 7 -2.88658e-15
      vertex -3 7 -1.55431e-15
    endloop
  endfacet
  facet normal 0 1 0
    outer loop
      vertex -1.34234 7 -0.775
      vertex -3 7 -1.55431e-15
      vertex -1.55 7 -1.55431e-15
    endloop
  endfacet
  facet normal 0 1 0
    outer loop
      vertex -0.775 7 -1.34234
      vertex 1.27304 7 -3.5
      vertex -1.34234 7 -0.775
    endloop
  endfacet
  facet normal 0 1 0
    outer loop
      vertex 0 7 -1.55
      vertex 1.27304 7 -3.5
      vertex -0.775 7 -1.34234
    endloop
  endfacet
  facet normal 0 1 0
    outer loop
      vertex 1.55 7 -1.55431e-15
      vertex 6.77533 7 -1.31591
      vertex 1.34234 7 -0.775
    endloop
  endfacet
  facet normal 0 1 0
    outer loop
      vertex 6.77533 7 -1.31591
      vertex 1.27304 7 -3.5
      vertex 0 7 -1.55
    endloop
  endfacet
  facet normal 0 1 0
    outer loop
      vertex 6.77533 7 -1.31591
      vertex 0 7 -1.55
      vertex 0.775 7 -1.34234
    endloop
  endfacet
  facet normal 0 1 0
    outer loop
      vertex 1.55 7 -1.55431e-15
      vertex 10.0904 7 -3.46134e-08
      vertex 6.77533 7 -1.31591
    endloop
  endfacet
  facet normal 0 1 0
    outer loop
      vertex 1.34234 7 0.775
      vertex 1.27304 7 3.5
      vertex 1.55 7 -1.55431e-15
    endloop
  endfacet
  facet normal 0 1 0
    outer loop
      vertex -0.775 7 1.34234
      vertex 1.27304 7 3.5
      vertex 0 7 1.55
    endloop
  endfacet
  facet normal 0 1 0
    outer loop
      vertex 0.775 7 1.34234
      vertex 1.27304 7 3.5
      vertex 1.34234 7 0.775
    endloop
  endfacet
  facet normal 0 1 0
    outer loop
      vertex 0 7 1.55
      vertex 1.27304 7 3.5
      vertex 0.775 7 1.34234
    endloop
  endfacet
  facet normal 0 1 0
    outer loop
      vertex -3 7 -1.55431e-15
      vertex 1.27304 7 3.5
      vertex -0.775 7 1.34234
    endloop
  endfacet
  facet normal 0 1 0
    outer loop
      vertex -3 7 -1.55431e-15
      vertex -0.775 7 1.34234
      vertex -1.34234 7 0.775
    endloop
  endfacet
  facet normal 0 1 0
    outer loop
      vertex -3 7 -1.55431e-15
      vertex -1.34234 7 0.775
      vertex -1.55 7 -1.55431e-15
    endloop
  endfacet
  facet normal 0 1 0
    outer loop
      vertex 1.34234 7 -0.775
      vertex 6.77533 7 -1.31591
      vertex 0.775 7 -1.34234
    endloop
  endfacet
  facet normal 0 1 0
    outer loop
      vertex -3 7 -2.88658e-15
      vertex -1.34234 7 -0.775
      vertex 1.27304 7 -3.5
    endloop
  endfacet
  facet normal 0 1 0
    outer loop
      vertex -3 7 -2.88658e-15
      vertex 1.27304 7 -3.5
      vertex -3 7 -3.5
    endloop
  endfacet
  facet normal 0.194674 0.849457 0.490434
    outer loop
      vertex 1.27304 7 3.5
      vertex 23 2.02073 3.5
      vertex 10.0904 7 -3.46134e-08
    endloop
  endfacet
  facet normal 0.194674 0.849457 0.490434
    outer loop
      vertex 10.0904 7 -3.46134e-08
      vertex 23 2.02073 3.5
      vertex 23 4.04145 2.88658e-15
    endloop
  endfacet
  facet normal 0.194674 0.849457 0.490434
    outer loop
      vertex 10.0904 7 -3.46134e-08
      vertex 23 4.04145 2.88658e-15
      vertex 23 4.04145 -5.00877e-08
    endloop
  endfacet
  facet normal -1.11022e-16 0.866025 0.5
    outer loop
      vertex 9 2.02073 3.5
      vertex 111 2.02073 3.5
      vertex 23 2.02073 3.5
    endloop
  endfacet
  facet normal -1.11022e-16 0.866025 0.5
    outer loop
      vertex 23 4.04145 2.88658e-15
      vertex 97 4.04145 -5.00877e-08
      vertex 23 4.04145 -5.00877e-08
    endloop
  endfacet
  facet normal -1.11022e-16 0.866025 0.5
    outer loop
      vertex 97 2.02073 3.5
      vertex 97 4.04145 3.11187e-15
      vertex 23 2.02073 3.5
    endloop
  endfacet
  facet normal -1.11022e-16 0.866025 0.5
    outer loop
      vertex 97 2.02073 3.5
      vertex 23 2.02073 3.5
      vertex 111 2.02073 3.5
    endloop
  endfacet
  facet normal -1.11022e-16 0.866025 0.5
    outer loop
      vertex 23 2.02073 3.5
      vertex 97 4.04145 3.11187e-15
      vertex 97 4.04145 -5.00877e-08
    endloop
  endfacet
  facet normal -1.11022e-16 0.866025 0.5
    outer loop
      vertex 23 2.02073 3.5
      vertex 97 4.04145 -5.00877e-08
      vertex 23 4.04145 2.88658e-15
    endloop
  endfacet
  facet normal -1.11022e-16 -0.866025 0.5
    outer loop
      vertex 97 -2.02073 3.5
      vertex 111 -2.02073 3.5
      vertex 23 -2.02073 3.5
    endloop
  endfacet
  facet normal -1.11022e-16 -0.866025 0.5
    outer loop
      vertex 23 -2.02073 3.5
      vertex 111 -2.02073 3.5
      vertex 9 -2.02073 3.5
    endloop
  endfacet
  facet normal -1.11022e-16 -0.866025 0.5
    outer loop
      vertex 23 -4.04145 5.00877e-08
      vertex 97 -2.02073 3.5
      vertex 23 -2.02073 3.5
    endloop
  endfacet
  facet normal -1.11022e-16 -0.866025 0.5
    outer loop
      vertex 97 -4.04145 5.00877e-08
      vertex 97 -2.02073 3.5
      vertex 23 -4.04145 5.00877e-08
    endloop
  endfacet
  facet normal 1.11022e-16 -0.866025 -0.5
    outer loop
      vertex 97 -2.02073 -3.5
      vertex 23 -2.02073 -3.5
      vertex 111 -2.02073 -3.5
    endloop
  endfacet
  facet normal 1.11022e-16 -0.866025 -0.5
    outer loop
      vertex 111 -2.02073 -3.5
      vertex 23 -2.02073 -3.5
      vertex 9 -2.02073 -3.5
    endloop
  endfacet
  facet normal 1.11022e-16 -0.866025 -0.5
    outer loop
      vertex 97 -4.04145 2.88658e-15
      vertex 23 -2.02073 -3.5
      vertex 97 -2.02073 -3.5
    endloop
  endfacet
  facet normal 1.11022e-16 -0.866025 -0.5
    outer loop
      vertex 23 -4.04145 5.00877e-08
      vertex 97 -4.04145 3.11187e-15
      vertex 97 -4.04145 5.00877e-08
    endloop
  endfacet
  facet normal 1.11022e-16 -0.866025 -0.5
    outer loop
      vertex 23 -4.04145 5.00877e-08
      vertex 97 -4.04145 2.88658e-15
      vertex 97 -4.04145 3.11187e-15
    endloop
  endfacet
  facet normal 1.11022e-16 -0.866025 -0.5
    outer loop
      vertex 23 -4.04145 5.00877e-08
      vertex 23 -2.02073 -3.5
      vertex 97 -4.04145 2.88658e-15
    endloop
  endfacet
  facet normal -0.793353 -1.35172e-16 -0.608761
    outer loop
      vertex -4.33013 4.2 -2.5
      vertex -4.33013 7 -2.5
      vertex -3.5628 4.2 -3.5
    endloop
  endfacet
  facet normal -0.793353 -1.35172e-16 -0.608761
    outer loop
      vertex -3.5628 4.2 -3.5
      vertex -4.33013 7 -2.5
      vertex -3.5628 7 -3.5
    endloop
  endfacet
  facet normal -0.353553 -0.866025 -0.353553
    outer loop
      vertex 8.64393 2.1 -3.5
      vertex 7.13731 2.1 -1.99338
      vertex 3.5 4.2 -3.5
    endloop
  endfacet
  facet normal -0.707107 -3.6203e-08 -0.707107
    outer loop
      vertex 8.64393 -2.1 -3.5
      vertex 7.13731 -2.1 -1.99338
      vertex 8.64393 2.1 -3.5
    endloop
  endfacet
  facet normal -0.707107 -3.6203e-08 -0.707107
    outer loop
      vertex 8.64393 2.1 -3.5
      vertex 7.13731 -2.1 -1.99338
      vertex 7.13731 2.1 -1.99338
    endloop
  endfacet
  facet normal -0.353553 0.866025 -0.353553
    outer loop
      vertex 8.64393 -2.1 -3.5
      vertex 3.5 -4.2 -3.5
      vertex 7.13731 -2.1 -1.99338
    endloop
  endfacet
  facet normal 1.11022e-16 0.866025 -0.5
    outer loop
      vertex 97 4.04145 -5.00877e-08
      vertex 23 2.02073 -3.5
      vertex 23 4.04145 -5.00877e-08
    endloop
  endfacet
  facet normal 1.11022e-16 0.866025 -0.5
    outer loop
      vertex 97 2.02073 -3.5
      vertex 23 2.02073 -3.5
      vertex 97 4.04145 -5.00877e-08
    endloop
  endfacet
  facet normal 1.11022e-16 0.866025 -0.5
    outer loop
      vertex 9 2.02073 -3.5
      vertex 23 2.02073 -3.5
      vertex 97 2.02073 -3.5
    endloop
  endfacet
  facet normal 1.11022e-16 0.866025 -0.5
    outer loop
      vertex 9 2.02073 -3.5
      vertex 97 2.02073 -3.5
      vertex 111 2.02073 -3.5
    endloop
  endfacet
  facet normal 0.194674 0.849457 -0.490434
    outer loop
      vertex 6.77533 7 -1.31591
      vertex 10.0904 7 -3.46134e-08
      vertex 23 2.02073 -3.5
    endloop
  endfacet
  facet normal 0.194674 0.849457 -0.490434
    outer loop
      vertex 23 2.02073 -3.5
      vertex 10.0904 7 -3.46134e-08
      vertex 23 4.04145 -5.00877e-08
    endloop
  endfacet
  facet normal 0.194674 0.849457 -0.490434
    outer loop
      vertex 23 2.02073 -3.5
      vertex 1.27304 7 -3.5
      vertex 6.77533 7 -1.31591
    endloop
  endfacet
  facet normal 0 1 -2.22045e-16
    outer loop
      vertex -5 7 -1.55431e-15
      vertex -3 7 -1.55431e-15
      vertex -4.82963 7 -1.2941
    endloop
  endfacet
  facet normal 0 1 -2.22045e-16
    outer loop
      vertex -4.82963 7 -1.2941
      vertex -3 7 -1.55431e-15
      vertex -3 7 -2.88658e-15
    endloop
  endfacet
  facet normal 0 1 -2.22045e-16
    outer loop
      vertex -4.82963 7 -1.2941
      vertex -3 7 -2.88658e-15
      vertex -3 7 -3.5
    endloop
  endfacet
  facet normal 0 1 -2.22045e-16
    outer loop
      vertex -4.82963 7 -1.2941
      vertex -3 7 -3.5
      vertex -3.5628 7 -3.5
    endloop
  endfacet
  facet normal 0 1 -2.22045e-16
    outer loop
      vertex -4.82963 7 -1.2941
      vertex -3.5628 7 -3.5
      vertex -4.33013 7 -2.5
    endloop
  endfacet
  facet normal -0.5 0.866025 0
    outer loop
      vertex 7.13731 -2.1 1.99338
      vertex 7.13731 -2.1 -1.99338
      vertex 3.5 -4.2 3.5
    endloop
  endfacet
  facet normal -0.5 0.866025 0
    outer loop
      vertex 3.5 -4.2 3.5
      vertex 7.13731 -2.1 -1.99338
      vertex 3.5 -4.2 -3.5
    endloop
  endfacet
  facet normal -1 -3.6203e-08 0
    outer loop
      vertex 7.13731 -2.1 1.99338
      vertex 7.13731 2.1 1.99338
      vertex 7.13731 -2.1 -1.99338
    endloop
  endfacet
  facet normal -1 -3.6203e-08 0
    outer loop
      vertex 7.13731 -2.1 -1.99338
      vertex 7.13731 2.1 1.99338
      vertex 7.13731 2.1 -1.99338
    endloop
  endfacet
  facet normal -0.92388 -8.49728e-17 -0.382683
    outer loop
      vertex -4.82963 4.2 -1.2941
      vertex -4.82963 7 -1.2941
      vertex -4.33013 4.2 -2.5
    endloop
  endfacet
  facet normal -0.92388 -8.49728e-17 -0.382683
    outer loop
      vertex -4.33013 4.2 -2.5
      vertex -4.82963 7 -1.2941
      vertex -4.33013 7 -2.5
    endloop
  endfacet
  facet normal -0.991445 -2.89827e-17 -0.130526
    outer loop
      vertex -5 4.2 -9.32587e-16
      vertex -5 7 -1.55431e-15
      vertex -4.82963 4.2 -1.2941
    endloop
  endfacet
  facet normal -0.991445 -2.89827e-17 -0.130526
    outer loop
      vertex -4.82963 4.2 -1.2941
      vertex -5 7 -1.55431e-15
      vertex -4.82963 7 -1.2941
    endloop
  endfacet
  facet normal -0.991445 2.89827e-17 0.130526
    outer loop
      vertex -5 4.2 -9.32587e-16
      vertex -4.82963 4.2 1.29409
      vertex -5 7 -1.55431e-15
    endloop
  endfacet
  facet normal -0.991445 2.89827e-17 0.130526
    outer loop
      vertex -5 7 -1.55431e-15
      vertex -4.82963 4.2 1.29409
      vertex -4.82963 7 1.29409
    endloop
  endfacet
  facet normal -0.92388 8.49728e-17 0.382683
    outer loop
      vertex -4.82963 4.2 1.29409
      vertex -4.33013 4.2 2.5
      vertex -4.82963 7 1.29409
    endloop
  endfacet
  facet normal -0.92388 8.49728e-17 0.382683
    outer loop
      vertex -4.82963 7 1.29409
      vertex -4.33013 4.2 2.5
      vertex -4.33013 7 2.5
    endloop
  endfacet
  facet normal 0.965926 -5.74695e-17 -0.258819
    outer loop
      vertex -1.55 7 -1.55431e-15
      vertex -1.34234 7 0.775
      vertex -1.34234 4.2 0.775
    endloop
  endfacet
  facet normal 0.965926 -5.74695e-17 -0.258819
    outer loop
      vertex -1.55 4.2 -9.32587e-16
      vertex -1.55 7 -1.55431e-15
      vertex -1.34234 4.2 0.775
    endloop
  endfacet
  facet normal 0.965926 5.74695e-17 0.258819
    outer loop
      vertex -1.34234 4.2 -0.775
      vertex -1.34234 7 -0.775
      vertex -1.55 7 -1.55431e-15
    endloop
  endfacet
  facet normal 0.965926 5.74695e-17 0.258819
    outer loop
      vertex -1.55 4.2 -9.32587e-16
      vertex -1.34234 4.2 -0.775
      vertex -1.55 7 -1.55431e-15
    endloop
  endfacet
  facet normal 0.707107 1.57009e-16 0.707107
    outer loop
      vertex -0.775 4.2 -1.34234
      vertex -0.775 7 -1.34234
      vertex -1.34234 7 -0.775
    endloop
  endfacet
  facet normal 0.707107 1.57009e-16 0.707107
    outer loop
      vertex -1.34234 4.2 -0.775
      vertex -0.775 4.2 -1.34234
      vertex -1.34234 7 -0.775
    endloop
  endfacet
  facet normal 0.258819 2.14479e-16 0.965926
    outer loop
      vertex 0 4.2 -1.55
      vertex 0 7 -1.55
      vertex -0.775 7 -1.34234
    endloop
  endfacet
  facet normal 0.258819 2.14479e-16 0.965926
    outer loop
      vertex -0.775 4.2 -1.34234
      vertex 0 4.2 -1.55
      vertex -0.775 7 -1.34234
    endloop
  endfacet
  facet normal -0.258819 2.14479e-16 0.965926
    outer loop
      vertex 0.775 4.2 -1.34234
      vertex 0.775 7 -1.34234
      vertex 0 7 -1.55
    endloop
  endfacet
  facet normal -0.258819 2.14479e-16 0.965926
    outer loop
      vertex 0 4.2 -1.55
      vertex 0.775 4.2 -1.34234
      vertex 0 7 -1.55
    endloop
  endfacet
  facet normal -0.707107 1.57009e-16 0.707107
    outer loop
      vertex 1.34234 7 -0.775
      vertex 0.775 7 -1.34234
      vertex 1.34234 4.2 -0.775
    endloop
  endfacet
  facet normal -0.707107 1.57009e-16 0.707107
    outer loop
      vertex 1.34234 4.2 -0.775
      vertex 0.775 7 -1.34234
      vertex 0.775 4.2 -1.34234
    endloop
  endfacet
  facet normal -0.965926 5.74695e-17 0.258819
    outer loop
      vertex 1.55 7 -1.55431e-15
      vertex 1.34234 7 -0.775
      vertex 1.55 4.2 -9.32587e-16
    endloop
  endfacet
  facet normal -0.965926 5.74695e-17 0.258819
    outer loop
      vertex 1.55 4.2 -9.32587e-16
      vertex 1.34234 7 -0.775
      vertex 1.34234 4.2 -0.775
    endloop
  endfacet
  facet normal -0.965926 -5.74695e-17 -0.258819
    outer loop
      vertex 1.55 7 -1.55431e-15
      vertex 1.55 4.2 -9.32587e-16
      vertex 1.34234 7 0.775
    endloop
  endfacet
  facet normal -0.965926 -5.74695e-17 -0.258819
    outer loop
      vertex 1.34234 7 0.775
      vertex 1.55 4.2 -9.32587e-16
      vertex 1.34234 4.2 0.775
    endloop
  endfacet
  facet normal -0.707107 -1.57009e-16 -0.707107
    outer loop
      vertex 1.34234 7 0.775
      vertex 1.34234 4.2 0.775
      vertex 0.775 7 1.34234
    endloop
  endfacet
  facet normal -0.707107 -1.57009e-16 -0.707107
    outer loop
      vertex 0.775 7 1.34234
      vertex 1.34234 4.2 0.775
      vertex 0.775 4.2 1.34234
    endloop
  endfacet
  facet normal -0.258819 -2.14479e-16 -0.965926
    outer loop
      vertex 0.775 7 1.34234
      vertex 0.775 4.2 1.34234
      vertex 0 7 1.55
    endloop
  endfacet
  facet normal -0.258819 -2.14479e-16 -0.965926
    outer loop
      vertex 0 7 1.55
      vertex 0.775 4.2 1.34234
      vertex 0 4.2 1.55
    endloop
  endfacet
  facet normal 0.258819 -2.14479e-16 -0.965926
    outer loop
      vertex 0 7 1.55
      vertex 0 4.2 1.55
      vertex -0.775 7 1.34234
    endloop
  endfacet
  facet normal 0.258819 -2.14479e-16 -0.965926
    outer loop
      vertex -0.775 7 1.34234
      vertex 0 4.2 1.55
      vertex -0.775 4.2 1.34234
    endloop
  endfacet
  facet normal 0.707107 -1.57009e-16 -0.707107
    outer loop
      vertex -1.34234 7 0.775
      vertex -0.775 7 1.34234
      vertex -0.775 4.2 1.34234
    endloop
  endfacet
  facet normal 0.707107 -1.57009e-16 -0.707107
    outer loop
      vertex -1.34234 4.2 0.775
      vertex -1.34234 7 0.775
      vertex -0.775 4.2 1.34234
    endloop
  endfacet
  facet normal -0.194674 0.849457 -0.490434
    outer loop
      vertex 97 4.04145 3.11187e-15
      vertex 97 4.04145 5.00877e-08
      vertex 97 4.04145 -5.00877e-08
    endloop
  endfacet
  facet normal -0.194674 0.849457 -0.490434
    outer loop
      vertex 97 4.04145 -5.00877e-08
      vertex 97 4.04145 5.00877e-08
      vertex 109.91 7 3.46134e-08
    endloop
  endfacet
  facet normal -0.194674 0.849457 -0.490434
    outer loop
      vertex 97 4.04145 -5.00877e-08
      vertex 109.91 7 3.46134e-08
      vertex 118.727 7 -3.5
    endloop
  endfacet
  facet normal -0.194674 0.849457 -0.490434
    outer loop
      vertex 97 4.04145 -5.00877e-08
      vertex 118.727 7 -3.5
      vertex 97 2.02073 -3.5
    endloop
  endfacet
  facet normal -1 1.22461e-16 2.22045e-16
    outer loop
      vertex 97 4.04145 3.11187e-15
      vertex 97 2.02073 3.5
      vertex 97 4.04145 5.00877e-08
    endloop
  endfacet
  facet normal 0 0 1
    outer loop
      vertex 116.5 4.2 3.5
      vertex 123.563 7 3.5
      vertex 97 2.02073 3.5
    endloop
  endfacet
  facet normal 0 0 1
    outer loop
      vertex 111.356 2.1 3.5
      vertex 97 2.02073 3.5
      vertex 111 2.02073 3.5
    endloop
  endfacet
  facet normal 0 0 1
    outer loop
      vertex 97 -2.02073 3.5
      vertex 118.727 -7 3.5
      vertex 111 -2.02073 3.5
    endloop
  endfacet
  facet normal 0 0 1
    outer loop
      vertex 116.5 -4.2 3.5
      vertex 111.356 -2.1 3.5
      vertex 118.727 -7 3.5
    endloop
  endfacet
  facet normal 0 0 1
    outer loop
      vertex 118.727 -7 3.5
      vertex 123.563 -7 3.5
      vertex 116.5 -4.2 3.5
    endloop
  endfacet
  facet normal 0 0 1
    outer loop
      vertex 111 -2.02073 3.5
      vertex 111.356 -2.1 3.5
      vertex 111 2.02073 3.5
    endloop
  endfacet
  facet normal 0 0 1
    outer loop
      vertex 111 -2.02073 3.5
      vertex 118.727 -7 3.5
      vertex 111.356 -2.1 3.5
    endloop
  endfacet
  facet normal 0 0 1
    outer loop
      vertex 111.356 2.1 3.5
      vertex 116.5 4.2 3.5
      vertex 97 2.02073 3.5
    endloop
  endfacet
  facet normal 0 0 1
    outer loop
      vertex 123.563 4.2 3.5
      vertex 123.563 7 3.5
      vertex 116.5 4.2 3.5
    endloop
  endfacet
  facet normal 0 0 1
    outer loop
      vertex 123.563 7 3.5
      vertex 123 7 3.5
      vertex 97 2.02073 3.5
    endloop
  endfacet
  facet normal 0 0 1
    outer loop
      vertex 123 7 3.5
      vertex 118.727 7 3.5
      vertex 97 2.02073 3.5
    endloop
  endfacet
  facet normal 0 0 1
    outer loop
      vertex 123.563 -4.2 3.5
      vertex 116.5 -4.2 3.5
      vertex 123.563 -7 3.5
    endloop
  endfacet
  facet normal 0 0 1
    outer loop
      vertex 111.356 -2.1 3.5
      vertex 111.356 2.1 3.5
      vertex 111 2.02073 3.5
    endloop
  endfacet
  facet normal -2.22045e-16 1.23935e-08 1
    outer loop
      vertex 9 2.02073 3.5
      vertex 9 -2.02073 3.5
      vertex 111 -2.02073 3.5
    endloop
  endfacet
  facet normal -2.22045e-16 1.23935e-08 1
    outer loop
      vertex 111 2.02073 3.5
      vertex 9 2.02073 3.5
      vertex 111 -2.02073 3.5
    endloop
  endfacet
  facet normal -0.194674 -0.849457 0.490434
    outer loop
      vertex 97 -4.04145 2.88658e-15
      vertex 97 -4.04145 -5.00877e-08
      vertex 109.91 -7 -3.46134e-08
    endloop
  endfacet
  facet normal -0.194674 -0.849457 0.490434
    outer loop
      vertex 97 -4.04145 5.00877e-08
      vertex 97 -4.04145 2.88658e-15
      vertex 118.727 -7 3.5
    endloop
  endfacet
  facet normal -0.194674 -0.849457 0.490434
    outer loop
      vertex 118.727 -7 3.5
      vertex 97 -4.04145 2.88658e-15
      vertex 109.91 -7 -3.46134e-08
    endloop
  endfacet
  facet normal -0.194674 -0.849457 0.490434
    outer loop
      vertex 97 -2.02073 3.5
      vertex 97 -4.04145 5.00877e-08
      vertex 118.727 -7 3.5
    endloop
  endfacet
  facet normal -0.194674 -0.849457 0.490434
    outer loop
      vertex 97 -4.04145 5.00877e-08
      vertex 97 -4.04145 3.11187e-15
      vertex 97 -4.04145 2.88658e-15
    endloop
  endfacet
  facet normal -1 1.22461e-16 0
    outer loop
      vertex 97 -4.04145 -5.00877e-08
      vertex 97 -4.04145 2.88658e-15
      vertex 97 -2.02073 -3.5
    endloop
  endfacet
  facet normal 0 0 -1
    outer loop
      vertex 111 2.02073 -3.5
      vertex 97 2.02073 -3.5
      vertex 118.727 7 -3.5
    endloop
  endfacet
  facet normal 0 0 -1
    outer loop
      vertex 111.356 -2.1 -3.5
      vertex 111 -2.02073 -3.5
      vertex 111.356 2.1 -3.5
    endloop
  endfacet
  facet normal 0 0 -1
    outer loop
      vertex 116.5 4.2 -3.5
      vertex 118.727 7 -3.5
      vertex 123.563 7 -3.5
    endloop
  endfacet
  facet normal 0 0 -1
    outer loop
      vertex 111.356 2.1 -3.5
      vertex 118.727 7 -3.5
      vertex 116.5 4.2 -3.5
    endloop
  endfacet
  facet normal 0 0 -1
    outer loop
      vertex 111 2.02073 -3.5
      vertex 118.727 7 -3.5
      vertex 111.356 2.1 -3.5
    endloop
  endfacet
  facet normal 0 0 -1
    outer loop
      vertex 111 2.02073 -3.5
      vertex 111.356 2.1 -3.5
      vertex 111 -2.02073 -3.5
    endloop
  endfacet
  facet normal 0 0 -1
    outer loop
      vertex 111 -2.02073 -3.5
      vertex 111.356 -2.1 -3.5
      vertex 97 -2.02073 -3.5
    endloop
  endfacet
  facet normal 0 0 -1
    outer loop
      vertex 97 -2.02073 -3.5
      vertex 111.356 -2.1 -3.5
      vertex 116.5 -4.2 -3.5
    endloop
  endfacet
  facet normal 0 0 -1
    outer loop
      vertex 116.5 -4.2 -3.5
      vertex 123.563 -7 -3.5
      vertex 97 -2.02073 -3.5
    endloop
  endfacet
  facet normal 0 0 -1
    outer loop
      vertex 116.5 -4.2 -3.5
      vertex 123.563 -4.2 -3.5
      vertex 123.563 -7 -3.5
    endloop
  endfacet
  facet normal 0 0 -1
    outer loop
      vertex 97 -2.02073 -3.5
      vertex 123.563 -7 -3.5
      vertex 123 -7 -3.5
    endloop
  endfacet
  facet normal 0 0 -1
    outer loop
      vertex 97 -2.02073 -3.5
      vertex 123 -7 -3.5
      vertex 118.727 -7 -3.5
    endloop
  endfacet
  facet normal 0 0 -1
    outer loop
      vertex 116.5 4.2 -3.5
      vertex 123.563 7 -3.5
      vertex 123.563 4.2 -3.5
    endloop
  endfacet
  facet normal 2.22045e-16 -1.23935e-08 -1
    outer loop
      vertex 9 -2.02073 -3.5
      vertex 9 2.02073 -3.5
      vertex 111 -2.02073 -3.5
    endloop
  endfacet
  facet normal 2.22045e-16 -1.23935e-08 -1
    outer loop
      vertex 111 -2.02073 -3.5
      vertex 9 2.02073 -3.5
      vertex 111 2.02073 -3.5
    endloop
  endfacet
  facet normal 1.22461e-16 1 0
    outer loop
      vertex 109.91 7 3.46134e-08
      vertex 113.225 7 1.31591
      vertex 118.727 7 -3.5
    endloop
  endfacet
  facet normal 1.22461e-16 1 0
    outer loop
      vertex 118.45 7 1.55431e-15
      vertex 113.225 7 1.31591
      vertex 118.727 7 3.5
    endloop
  endfacet
  facet normal 1.22461e-16 1 0
    outer loop
      vertex 120.775 7 1.34234
      vertex 118.727 7 3.5
      vertex 123 7 3.5
    endloop
  endfacet
  facet normal 1.22461e-16 1 0
    outer loop
      vertex 121.342 7 -0.775
      vertex 123 7 3.5
      vertex 123 7 1.55431e-15
    endloop
  endfacet
  facet normal 1.22461e-16 1 0
    outer loop
      vertex 118.727 7 -3.5
      vertex 123 7 1.55431e-15
      vertex 125 7 1.55431e-15
    endloop
  endfacet
  facet normal 1.22461e-16 1 0
    outer loop
      vertex 118.727 7 -3.5
      vertex 125 7 1.55431e-15
      vertex 124.83 7 -1.29409
    endloop
  endfacet
  facet normal 1.22461e-16 1 0
    outer loop
      vertex 118.727 7 -3.5
      vertex 124.83 7 -1.29409
      vertex 124.33 7 -2.5
    endloop
  endfacet
  facet normal 1.22461e-16 1 0
    outer loop
      vertex 118.727 7 -3.5
      vertex 124.33 7 -2.5
      vertex 123.563 7 -3.5
    endloop
  endfacet
  facet normal 1.22461e-16 1 0
    outer loop
      vertex 118.727 7 -3.5
      vertex 113.225 7 1.31591
      vertex 118.45 7 1.55431e-15
    endloop
  endfacet
  facet normal 1.22461e-16 1 0
    outer loop
      vertex 118.658 7 0.775
      vertex 118.45 7 1.55431e-15
      vertex 118.727 7 3.5
    endloop
  endfacet
  facet normal 1.22461e-16 1 0
    outer loop
      vertex 118.727 7 -3.5
      vertex 118.45 7 1.55431e-15
      vertex 118.658 7 -0.775
    endloop
  endfacet
  facet normal 1.22461e-16 1 0
    outer loop
      vertex 120 7 -1.55
      vertex 118.727 7 -3.5
      vertex 119.225 7 -1.34234
    endloop
  endfacet
  facet normal 1.22461e-16 1 0
    outer loop
      vertex 120.775 7 1.34234
      vertex 123 7 3.5
      vertex 121.342 7 0.775
    endloop
  endfacet
  facet normal 1.22461e-16 1 0
    outer loop
      vertex 118.727 7 -3.5
      vertex 120 7 -1.55
      vertex 120.775 7 -1.34234
    endloop
  endfacet
  facet normal 1.22461e-16 1 0
    outer loop
      vertex 118.727 7 -3.5
      vertex 120.775 7 -1.34234
      vertex 123 7 1.55431e-15
    endloop
  endfacet
  facet normal 1.22461e-16 1 0
    outer loop
      vertex 121.55 7 1.55431e-15
      vertex 123 7 3.5
      vertex 121.342 7 -0.775
    endloop
  endfacet
  facet normal 1.22461e-16 1 0
    outer loop
      vertex 121.342 7 0.775
      vertex 123 7 3.5
      vertex 121.55 7 1.55431e-15
    endloop
  endfacet
  facet normal 1.22461e-16 1 0
    outer loop
      vertex 121.342 7 -0.775
      vertex 123 7 1.55431e-15
      vertex 120.775 7 -1.34234
    endloop
  endfacet
  facet normal 1.22461e-16 1 0
    outer loop
      vertex 120 7 1.55
      vertex 118.727 7 3.5
      vertex 120.775 7 1.34234
    endloop
  endfacet
  facet normal 1.22461e-16 1 0
    outer loop
      vertex 118.658 7 0.775
      vertex 118.727 7 3.5
      vertex 119.225 7 1.34234
    endloop
  endfacet
  facet normal 1.22461e-16 1 0
    outer loop
      vertex 119.225 7 1.34234
      vertex 118.727 7 3.5
      vertex 120 7 1.55
    endloop
  endfacet
  facet normal 1.22461e-16 1 0
    outer loop
      vertex 119.225 7 -1.34234
      vertex 118.727 7 -3.5
      vertex 118.658 7 -0.775
    endloop
  endfacet
  facet normal -0.194674 0.849457 0.490434
    outer loop
      vertex 97 4.04145 5.00877e-08
      vertex 97 2.02073 3.5
      vertex 109.91 7 3.46134e-08
    endloop
  endfacet
  facet normal -0.194674 0.849457 0.490434
    outer loop
      vertex 109.91 7 3.46134e-08
      vertex 97 2.02073 3.5
      vertex 113.225 7 1.31591
    endloop
  endfacet
  facet normal -0.194674 0.849457 0.490434
    outer loop
      vertex 113.225 7 1.31591
      vertex 97 2.02073 3.5
      vertex 118.727 7 3.5
    endloop
  endfacet
  facet normal 1.22461e-16 1 2.22045e-16
    outer loop
      vertex 123 7 3.5
      vertex 123.563 7 3.5
      vertex 123 7 1.55431e-15
    endloop
  endfacet
  facet normal 1.22461e-16 1 2.22045e-16
    outer loop
      vertex 123 7 1.55431e-15
      vertex 123.563 7 3.5
      vertex 124.33 7 2.5
    endloop
  endfacet
  facet normal 1.22461e-16 1 2.22045e-16
    outer loop
      vertex 123 7 1.55431e-15
      vertex 124.33 7 2.5
      vertex 124.83 7 1.2941
    endloop
  endfacet
  facet normal 1.22461e-16 1 2.22045e-16
    outer loop
      vertex 123 7 1.55431e-15
      vertex 124.83 7 1.2941
      vertex 125 7 1.55431e-15
    endloop
  endfacet
  facet normal 0.793353 -2.32327e-16 0.608761
    outer loop
      vertex 123.563 7 3.5
      vertex 123.563 4.2 3.5
      vertex 124.33 4.2 2.5
    endloop
  endfacet
  facet normal 0.793353 -2.32327e-16 0.608761
    outer loop
      vertex 124.33 7 2.5
      vertex 123.563 7 3.5
      vertex 124.33 4.2 2.5
    endloop
  endfacet
  facet normal -1.22461e-16 -1 0
    outer loop
      vertex 123.563 4.2 -3.5
      vertex 118.828 4.2 -1.17157
      vertex 116.5 4.2 -3.5
    endloop
  endfacet
  facet normal -1.22461e-16 -1 0
    outer loop
      vertex 120 4.2 -1.55
      vertex 123.563 4.2 -3.5
      vertex 124.33 4.2 -2.5
    endloop
  endfacet
  facet normal -1.22461e-16 -1 0
    outer loop
      vertex 120.775 4.2 -1.34234
      vertex 124.33 4.2 -2.5
      vertex 124.83 4.2 -1.29409
    endloop
  endfacet
  facet normal -1.22461e-16 -1 0
    outer loop
      vertex 121.342 4.2 -0.775
      vertex 124.83 4.2 -1.29409
      vertex 125 4.2 9.32587e-16
    endloop
  endfacet
  facet normal -1.22461e-16 -1 0
    outer loop
      vertex 121.342 4.2 -0.775
      vertex 120.775 4.2 -1.34234
      vertex 124.83 4.2 -1.29409
    endloop
  endfacet
  facet normal -1.22461e-16 -1 0
    outer loop
      vertex 121.55 4.2 9.32587e-16
      vertex 124.83 4.2 1.2941
      vertex 124.33 4.2 2.5
    endloop
  endfacet
  facet normal -1.22461e-16 -1 0
    outer loop
      vertex 121.342 4.2 0.775
      vertex 124.33 4.2 2.5
      vertex 123.563 4.2 3.5
    endloop
  endfacet
  facet normal -1.22461e-16 -1 0
    outer loop
      vertex 118.828 4.2 1.17157
      vertex 123.563 4.2 3.5
      vertex 116.5 4.2 3.5
    endloop
  endfacet
  facet normal -1.22461e-16 -1 0
    outer loop
      vertex 119.225 4.2 1.34234
      vertex 123.563 4.2 3.5
      vertex 118.828 4.2 1.17157
    endloop
  endfacet
  facet normal -1.22461e-16 -1 0
    outer loop
      vertex 120.775 4.2 1.34234
      vertex 121.342 4.2 0.775
      vertex 123.563 4.2 3.5
    endloop
  endfacet
  facet normal -1.22461e-16 -1 0
    outer loop
      vertex 118.658 4.2 -0.775
      vertex 116.5 4.2 -3.5
      vertex 118.828 4.2 -1.17157
    endloop
  endfacet
  facet normal -1.22461e-16 -1 0
    outer loop
      vertex 118.45 4.2 9.32587e-16
      vertex 116.5 4.2 -3.5
      vertex 118.658 4.2 -0.775
    endloop
  endfacet
  facet normal -1.22461e-16 -1 0
    outer loop
      vertex 118.658 4.2 0.775
      vertex 119.225 4.2 1.34234
      vertex 118.828 4.2 1.17157
    endloop
  endfacet
  facet normal -1.22461e-16 -1 0
    outer loop
      vertex 121.55 4.2 9.32587e-16
      vertex 121.342 4.2 -0.775
      vertex 125 4.2 9.32587e-16
    endloop
  endfacet
  facet normal -1.22461e-16 -1 0
    outer loop
      vertex 120 4.2 1.55
      vertex 123.563 4.2 3.5
      vertex 119.225 4.2 1.34234
    endloop
  endfacet
  facet normal -1.22461e-16 -1 0
    outer loop
      vertex 120.775 4.2 1.34234
      vertex 123.563 4.2 3.5
      vertex 120 4.2 1.55
    endloop
  endfacet
  facet normal -1.22461e-16 -1 0
    outer loop
      vertex 121.342 4.2 0.775
      vertex 121.55 4.2 9.32587e-16
      vertex 124.33 4.2 2.5
    endloop
  endfacet
  facet normal -1.22461e-16 -1 0
    outer loop
      vertex 121.55 4.2 9.32587e-16
      vertex 125 4.2 9.32587e-16
      vertex 124.83 4.2 1.2941
    endloop
  endfacet
  facet normal -1.22461e-16 -1 0
    outer loop
      vertex 120.775 4.2 -1.34234
      vertex 120 4.2 -1.55
      vertex 124.33 4.2 -2.5
    endloop
  endfacet
  facet normal -1.22461e-16 -1 0
    outer loop
      vertex 119.225 4.2 -1.34234
      vertex 123.563 4.2 -3.5
      vertex 120 4.2 -1.55
    endloop
  endfacet
  facet normal -1.22461e-16 -1 0
    outer loop
      vertex 118.828 4.2 -1.17157
      vertex 123.563 4.2 -3.5
      vertex 119.225 4.2 -1.34234
    endloop
  endfacet
  facet normal -1.22461e-16 -1 0
    outer loop
      vertex 118.658 4.2 0.775
      vertex 116.5 4.2 -3.5
      vertex 118.45 4.2 9.32587e-16
    endloop
  endfacet
  facet normal -1.22461e-16 -1 0
    outer loop
      vertex 118.828 4.2 1.17157
      vertex 116.5 4.2 -3.5
      vertex 118.658 4.2 0.775
    endloop
  endfacet
  facet normal -1.22461e-16 -1 0
    outer loop
      vertex 118.828 4.2 1.17157
      vertex 116.5 4.2 3.5
      vertex 116.5 4.2 -3.5
    endloop
  endfacet
  facet normal -1.22461e-16 -1 0
    outer loop
      vertex 119.225 4.2 -1.34234
      vertex 118.658 4.2 -0.775
      vertex 118.828 4.2 -1.17157
    endloop
  endfacet
  facet normal 0.353553 -0.866025 0.353553
    outer loop
      vertex 111.356 2.1 3.5
      vertex 112.863 2.1 1.99338
      vertex 116.5 4.2 3.5
    endloop
  endfacet
  facet normal 0.707107 3.6203e-08 0.707107
    outer loop
      vertex 111.356 -2.1 3.5
      vertex 112.863 -2.1 1.99338
      vertex 112.863 2.1 1.99338
    endloop
  endfacet
  facet normal 0.707107 3.6203e-08 0.707107
    outer loop
      vertex 111.356 2.1 3.5
      vertex 111.356 -2.1 3.5
      vertex 112.863 2.1 1.99338
    endloop
  endfacet
  facet normal 0.353553 0.866025 0.353553
    outer loop
      vertex 116.5 -4.2 3.5
      vertex 112.863 -2.1 1.99338
      vertex 111.356 -2.1 3.5
    endloop
  endfacet
  facet normal 0.5 0.866025 0
    outer loop
      vertex 112.863 -2.1 1.99338
      vertex 116.5 -4.2 3.5
      vertex 116.5 -4.2 -3.5
    endloop
  endfacet
  facet normal 0.5 0.866025 0
    outer loop
      vertex 112.863 -2.1 1.99338
      vertex 116.5 -4.2 -3.5
      vertex 112.863 -2.1 -1.99338
    endloop
  endfacet
  facet normal 1.22461e-16 1 0
    outer loop
      vertex 123.563 -4.2 3.5
      vertex 118.828 -4.2 1.17157
      vertex 116.5 -4.2 3.5
    endloop
  endfacet
  facet normal 1.22461e-16 1 0
    outer loop
      vertex 120 -4.2 1.55
      vertex 123.563 -4.2 3.5
      vertex 124.33 -4.2 2.5
    endloop
  endfacet
  facet normal 1.22461e-16 1 0
    outer loop
      vertex 120.775 -4.2 1.34234
      vertex 124.33 -4.2 2.5
      vertex 124.83 -4.2 1.29409
    endloop
  endfacet
  facet normal 1.22461e-16 1 0
    outer loop
      vertex 121.342 -4.2 0.775
      vertex 124.83 -4.2 1.29409
      vertex 125 -4.2 -9.32587e-16
    endloop
  endfacet
  facet normal 1.22461e-16 1 0
    outer loop
      vertex 121.55 -4.2 -9.32587e-16
      vertex 124.83 -4.2 -1.2941
      vertex 124.33 -4.2 -2.5
    endloop
  endfacet
  facet normal 1.22461e-16 1 0
    outer loop
      vertex 121.342 -4.2 -0.775
      vertex 124.33 -4.2 -2.5
      vertex 123.563 -4.2 -3.5
    endloop
  endfacet
  facet normal 1.22461e-16 1 0
    outer loop
      vertex 118.828 -4.2 -1.17157
      vertex 123.563 -4.2 -3.5
      vertex 116.5 -4.2 -3.5
    endloop
  endfacet
  facet normal 1.22461e-16 1 0
    outer loop
      vertex 119.225 -4.2 -1.34234
      vertex 118.828 -4.2 -1.17157
      vertex 118.658 -4.2 -0.775
    endloop
  endfacet
  facet normal 1.22461e-16 1 0
    outer loop
      vertex 119.225 -4.2 -1.34234
      vertex 123.563 -4.2 -3.5
      vertex 118.828 -4.2 -1.17157
    endloop
  endfacet
  facet normal 1.22461e-16 1 0
    outer loop
      vertex 120 -4.2 -1.55
      vertex 123.563 -4.2 -3.5
      vertex 119.225 -4.2 -1.34234
    endloop
  endfacet
  facet normal 1.22461e-16 1 0
    outer loop
      vertex 121.342 -4.2 -0.775
      vertex 123.563 -4.2 -3.5
      vertex 120.775 -4.2 -1.34234
    endloop
  endfacet
  facet normal 1.22461e-16 1 0
    outer loop
      vertex 120.775 -4.2 -1.34234
      vertex 123.563 -4.2 -3.5
      vertex 120 -4.2 -1.55
    endloop
  endfacet
  facet normal 1.22461e-16 1 0
    outer loop
      vertex 121.342 -4.2 0.775
      vertex 124.83 -4.2 -1.2941
      vertex 121.55 -4.2 -9.32587e-16
    endloop
  endfacet
  facet normal 1.22461e-16 1 0
    outer loop
      vertex 121.55 -4.2 -9.32587e-16
      vertex 124.33 -4.2 -2.5
      vertex 121.342 -4.2 -0.775
    endloop
  endfacet
  facet normal 1.22461e-16 1 0
    outer loop
      vertex 121.342 -4.2 0.775
      vertex 125 -4.2 -9.32587e-16
      vertex 124.83 -4.2 -1.2941
    endloop
  endfacet
  facet normal 1.22461e-16 1 0
    outer loop
      vertex 120.775 -4.2 1.34234
      vertex 124.83 -4.2 1.29409
      vertex 121.342 -4.2 0.775
    endloop
  endfacet
  facet normal 1.22461e-16 1 0
    outer loop
      vertex 120 -4.2 1.55
      vertex 124.33 -4.2 2.5
      vertex 120.775 -4.2 1.34234
    endloop
  endfacet
  facet normal 1.22461e-16 1 0
    outer loop
      vertex 119.225 -4.2 1.34234
      vertex 123.563 -4.2 3.5
      vertex 120 -4.2 1.55
    endloop
  endfacet
  facet normal 1.22461e-16 1 0
    outer loop
      vertex 118.658 -4.2 0.775
      vertex 118.828 -4.2 1.17157
      vertex 119.225 -4.2 1.34234
    endloop
  endfacet
  facet normal 1.22461e-16 1 0
    outer loop
      vertex 118.828 -4.2 1.17157
      vertex 123.563 -4.2 3.5
      vertex 119.225 -4.2 1.34234
    endloop
  endfacet
  facet normal 1.22461e-16 1 0
    outer loop
      vertex 116.5 -4.2 -3.5
      vertex 116.5 -4.2 3.5
      vertex 118.828 -4.2 1.17157
    endloop
  endfacet
  facet normal 1.22461e-16 1 0
    outer loop
      vertex 116.5 -4.2 -3.5
      vertex 118.828 -4.2 1.17157
      vertex 118.658 -4.2 0.775
    endloop
  endfacet
  facet normal 1.22461e-16 1 0
    outer loop
      vertex 116.5 -4.2 -3.5
      vertex 118.658 -4.2 0.775
      vertex 118.45 -4.2 -9.32587e-16
    endloop
  endfacet
  facet normal 1.22461e-16 1 0
    outer loop
      vertex 116.5 -4.2 -3.5
      vertex 118.45 -4.2 -9.32587e-16
      vertex 118.658 -4.2 -0.775
    endloop
  endfacet
  facet normal 1.22461e-16 1 0
    outer loop
      vertex 116.5 -4.2 -3.5
      vertex 118.658 -4.2 -0.775
      vertex 118.828 -4.2 -1.17157
    endloop
  endfacet
  facet normal 0.793353 -2.32327e-16 0.608761
    outer loop
      vertex 123.563 -4.2 3.5
      vertex 123.563 -7 3.5
      vertex 124.33 -7 2.5
    endloop
  endfacet
  facet normal 0.793353 -2.32327e-16 0.608761
    outer loop
      vertex 124.33 -4.2 2.5
      vertex 123.563 -4.2 3.5
      vertex 124.33 -7 2.5
    endloop
  endfacet
  facet normal -1.22461e-16 -1 0
    outer loop
      vertex 118.727 -7 3.5
      vertex 109.91 -7 -3.46134e-08
      vertex 113.225 -7 -1.31591
    endloop
  endfacet
  facet normal -1.22461e-16 -1 0
    outer loop
      vertex 118.658 -7 0.775
      vertex 119.225 -7 1.34234
      vertex 118.727 -7 3.5
    endloop
  endfacet
  facet normal -1.22461e-16 -1 0
    outer loop
      vertex 118.45 -7 -1.55431e-15
      vertex 118.727 -7 3.5
      vertex 113.225 -7 -1.31591
    endloop
  endfacet
  facet normal -1.22461e-16 -1 0
    outer loop
      vertex 120.775 -7 1.34234
      vertex 121.342 -7 0.775
      vertex 123 -7 -2.88658e-15
    endloop
  endfacet
  facet normal -1.22461e-16 -1 0
    outer loop
      vertex 123 -7 -1.55431e-15
      vertex 118.727 -7 3.5
      vertex 123 -7 -2.88658e-15
    endloop
  endfacet
  facet normal -1.22461e-16 -1 0
    outer loop
      vertex 125 -7 -1.55431e-15
      vertex 118.727 -7 3.5
      vertex 123 -7 -1.55431e-15
    endloop
  endfacet
  facet normal -1.22461e-16 -1 0
    outer loop
      vertex 124.83 -7 1.29409
      vertex 118.727 -7 3.5
      vertex 125 -7 -1.55431e-15
    endloop
  endfacet
  facet normal -1.22461e-16 -1 0
    outer loop
      vertex 124.33 -7 2.5
      vertex 118.727 -7 3.5
      vertex 124.83 -7 1.29409
    endloop
  endfacet
  facet normal -1.22461e-16 -1 0
    outer loop
      vertex 123.563 -7 3.5
      vertex 118.727 -7 3.5
      vertex 124.33 -7 2.5
    endloop
  endfacet
  facet normal -1.22461e-16 -1 0
    outer loop
      vertex 118.727 -7 -3.5
      vertex 118.658 -7 -0.775
      vertex 113.225 -7 -1.31591
    endloop
  endfacet
  facet normal -1.22461e-16 -1 0
    outer loop
      vertex 118.658 -7 -0.775
      vertex 118.45 -7 -1.55431e-15
      vertex 113.225 -7 -1.31591
    endloop
  endfacet
  facet normal -1.22461e-16 -1 0
    outer loop
      vertex 118.658 -7 0.775
      vertex 118.727 -7 3.5
      vertex 118.45 -7 -1.55431e-15
    endloop
  endfacet
  facet normal -1.22461e-16 -1 0
    outer loop
      vertex 119.225 -7 1.34234
      vertex 120 -7 1.55
      vertex 118.727 -7 3.5
    endloop
  endfacet
  facet normal -1.22461e-16 -1 0
    outer loop
      vertex 121.342 -7 -0.775
      vertex 120.775 -7 -1.34234
      vertex 123 -7 -3.5
    endloop
  endfacet
  facet normal -1.22461e-16 -1 0
    outer loop
      vertex 120.775 -7 1.34234
      vertex 118.727 -7 3.5
      vertex 120 -7 1.55
    endloop
  endfacet
  facet normal -1.22461e-16 -1 0
    outer loop
      vertex 121.55 -7 -1.55431e-15
      vertex 121.342 -7 -0.775
      vertex 123 -7 -3.5
    endloop
  endfacet
  facet normal -1.22461e-16 -1 0
    outer loop
      vertex 123 -7 -2.88658e-15
      vertex 118.727 -7 3.5
      vertex 120.775 -7 1.34234
    endloop
  endfacet
  facet normal -1.22461e-16 -1 0
    outer loop
      vertex 123 -7 -2.88658e-15
      vertex 121.342 -7 0.775
      vertex 123 -7 -3.5
    endloop
  endfacet
  facet normal -1.22461e-16 -1 0
    outer loop
      vertex 121.342 -7 0.775
      vertex 121.55 -7 -1.55431e-15
      vertex 123 -7 -3.5
    endloop
  endfacet
  facet normal -1.22461e-16 -1 0
    outer loop
      vertex 123 -7 -3.5
      vertex 120.775 -7 -1.34234
      vertex 118.727 -7 -3.5
    endloop
  endfacet
  facet normal -1.22461e-16 -1 0
    outer loop
      vertex 120.775 -7 -1.34234
      vertex 120 -7 -1.55
      vertex 118.727 -7 -3.5
    endloop
  endfacet
  facet normal -1.22461e-16 -1 0
    outer loop
      vertex 120 -7 -1.55
      vertex 119.225 -7 -1.34234
      vertex 118.727 -7 -3.5
    endloop
  endfacet
  facet normal -1.22461e-16 -1 0
    outer loop
      vertex 119.225 -7 -1.34234
      vertex 118.658 -7 -0.775
      vertex 118.727 -7 -3.5
    endloop
  endfacet
  facet normal -0.194674 -0.849457 -0.490434
    outer loop
      vertex 109.91 -7 -3.46134e-08
      vertex 97 -4.04145 -5.00877e-08
      vertex 97 -2.02073 -3.5
    endloop
  endfacet
  facet normal -0.194674 -0.849457 -0.490434
    outer loop
      vertex 113.225 -7 -1.31591
      vertex 109.91 -7 -3.46134e-08
      vertex 97 -2.02073 -3.5
    endloop
  endfacet
  facet normal -0.194674 -0.849457 -0.490434
    outer loop
      vertex 113.225 -7 -1.31591
      vertex 97 -2.02073 -3.5
      vertex 118.727 -7 -3.5
    endloop
  endfacet
  facet normal -1.22461e-16 -1 -2.22045e-16
    outer loop
      vertex 123 -7 -2.88658e-15
      vertex 123 -7 -3.5
      vertex 123.563 -7 -3.5
    endloop
  endfacet
  facet normal -1.22461e-16 -1 -2.22045e-16
    outer loop
      vertex 124.83 -7 -1.2941
      vertex 123 -7 -2.88658e-15
      vertex 124.33 -7 -2.5
    endloop
  endfacet
  facet normal -1.22461e-16 -1 -2.22045e-16
    outer loop
      vertex 124.33 -7 -2.5
      vertex 123 -7 -2.88658e-15
      vertex 123.563 -7 -3.5
    endloop
  endfacet
  facet normal -1.22461e-16 -1 -2.22045e-16
    outer loop
      vertex 125 -7 -1.55431e-15
      vertex 123 -7 -2.88658e-15
      vertex 124.83 -7 -1.2941
    endloop
  endfacet
  facet normal -1.22461e-16 -1 -2.22045e-16
    outer loop
      vertex 123 -7 -1.55431e-15
      vertex 123 -7 -2.88658e-15
      vertex 125 -7 -1.55431e-15
    endloop
  endfacet
  facet normal 0.793353 3.80176e-17 -0.608761
    outer loop
      vertex 123.563 -7 -3.5
      vertex 123.563 -4.2 -3.5
      vertex 124.33 -4.2 -2.5
    endloop
  endfacet
  facet normal 0.793353 3.80176e-17 -0.608761
    outer loop
      vertex 124.33 -7 -2.5
      vertex 123.563 -7 -3.5
      vertex 124.33 -4.2 -2.5
    endloop
  endfacet
  facet normal 0.353553 0.866025 -0.353553
    outer loop
      vertex 112.863 -2.1 -1.99338
      vertex 116.5 -4.2 -3.5
      vertex 111.356 -2.1 -3.5
    endloop
  endfacet
  facet normal 0.707107 3.6203e-08 -0.707107
    outer loop
      vertex 112.863 -2.1 -1.99338
      vertex 111.356 -2.1 -3.5
      vertex 112.863 2.1 -1.99338
    endloop
  endfacet
  facet normal 0.707107 3.6203e-08 -0.707107
    outer loop
      vertex 112.863 2.1 -1.99338
      vertex 111.356 -2.1 -3.5
      vertex 111.356 2.1 -3.5
    endloop
  endfacet
  facet normal 0.353553 -0.866025 -0.353553
    outer loop
      vertex 111.356 2.1 -3.5
      vertex 116.5 4.2 -3.5
      vertex 112.863 2.1 -1.99338
    endloop
  endfacet
  facet normal 0.793353 3.80176e-17 -0.608761
    outer loop
      vertex 123.563 4.2 -3.5
      vertex 123.563 7 -3.5
      vertex 124.33 7 -2.5
    endloop
  endfacet
  facet normal 0.793353 3.80176e-17 -0.608761
    outer loop
      vertex 124.33 4.2 -2.5
      vertex 123.563 4.2 -3.5
      vertex 124.33 7 -2.5
    endloop
  endfacet
  facet normal 0.92388 -2.81661e-17 -0.382683
    outer loop
      vertex 124.83 4.2 -1.29409
      vertex 124.33 4.2 -2.5
      vertex 124.33 7 -2.5
    endloop
  endfacet
  facet normal 0.92388 -2.81661e-17 -0.382683
    outer loop
      vertex 124.83 7 -1.29409
      vertex 124.83 4.2 -1.29409
      vertex 124.33 7 -2.5
    endloop
  endfacet
  facet normal 0.991445 -9.24303e-17 -0.130526
    outer loop
      vertex 125 4.2 9.32587e-16
      vertex 124.83 4.2 -1.29409
      vertex 124.83 7 -1.29409
    endloop
  endfacet
  facet normal 0.991445 -9.24303e-17 -0.130526
    outer loop
      vertex 125 7 1.55431e-15
      vertex 125 4.2 9.32587e-16
      vertex 124.83 7 -1.29409
    endloop
  endfacet
  facet normal 0.991445 -1.50396e-16 0.130526
    outer loop
      vertex 124.83 7 1.2941
      vertex 124.83 4.2 1.2941
      vertex 125 4.2 9.32587e-16
    endloop
  endfacet
  facet normal 0.991445 -1.50396e-16 0.130526
    outer loop
      vertex 125 7 1.55431e-15
      vertex 124.83 7 1.2941
      vertex 125 4.2 9.32587e-16
    endloop
  endfacet
  facet normal 0.965926 -6.08184e-17 -0.258819
    outer loop
      vertex 118.45 7 1.55431e-15
      vertex 118.658 7 0.775
      vertex 118.658 4.2 0.775
    endloop
  endfacet
  facet normal 0.965926 -6.08184e-17 -0.258819
    outer loop
      vertex 118.45 4.2 9.32587e-16
      vertex 118.45 7 1.55431e-15
      vertex 118.658 4.2 0.775
    endloop
  endfacet
  facet normal 0.965926 -1.75757e-16 0.258819
    outer loop
      vertex 118.658 4.2 -0.775
      vertex 118.658 7 -0.775
      vertex 118.45 7 1.55431e-15
    endloop
  endfacet
  facet normal 0.965926 -1.75757e-16 0.258819
    outer loop
      vertex 118.45 4.2 9.32587e-16
      vertex 118.658 4.2 -0.775
      vertex 118.45 7 1.55431e-15
    endloop
  endfacet
  facet normal 0.707107 7.04165e-17 -0.707107
    outer loop
      vertex 118.658 7 0.775
      vertex 119.225 7 1.34234
      vertex 119.225 4.2 1.34234
    endloop
  endfacet
  facet normal 0.707107 7.04165e-17 -0.707107
    outer loop
      vertex 118.658 4.2 0.775
      vertex 118.658 7 0.775
      vertex 119.225 4.2 1.34234
    endloop
  endfacet
  facet normal 0.258819 1.82783e-16 -0.965926
    outer loop
      vertex 120 7 1.55
      vertex 120 4.2 1.55
      vertex 119.225 7 1.34234
    endloop
  endfacet
  facet normal 0.258819 1.82783e-16 -0.965926
    outer loop
      vertex 119.225 7 1.34234
      vertex 120 4.2 1.55
      vertex 119.225 4.2 1.34234
    endloop
  endfacet
  facet normal -0.258819 2.46174e-16 -0.965926
    outer loop
      vertex 120.775 7 1.34234
      vertex 120.775 4.2 1.34234
      vertex 120 7 1.55
    endloop
  endfacet
  facet normal -0.258819 2.46174e-16 -0.965926
    outer loop
      vertex 120 7 1.55
      vertex 120.775 4.2 1.34234
      vertex 120 4.2 1.55
    endloop
  endfacet
  facet normal -0.707107 2.43602e-16 -0.707107
    outer loop
      vertex 121.342 7 0.775
      vertex 121.342 4.2 0.775
      vertex 120.775 7 1.34234
    endloop
  endfacet
  facet normal -0.707107 2.43602e-16 -0.707107
    outer loop
      vertex 120.775 7 1.34234
      vertex 121.342 4.2 0.775
      vertex 120.775 4.2 1.34234
    endloop
  endfacet
  facet normal -0.965926 1.75757e-16 -0.258819
    outer loop
      vertex 121.55 7 1.55431e-15
      vertex 121.55 4.2 9.32587e-16
      vertex 121.342 7 0.775
    endloop
  endfacet
  facet normal -0.965926 1.75757e-16 -0.258819
    outer loop
      vertex 121.342 7 0.775
      vertex 121.55 4.2 9.32587e-16
      vertex 121.342 4.2 0.775
    endloop
  endfacet
  facet normal -0.965926 6.08184e-17 0.258819
    outer loop
      vertex 121.55 7 1.55431e-15
      vertex 121.342 7 -0.775
      vertex 121.55 4.2 9.32587e-16
    endloop
  endfacet
  facet normal -0.965926 6.08184e-17 0.258819
    outer loop
      vertex 121.55 4.2 9.32587e-16
      vertex 121.342 7 -0.775
      vertex 121.342 4.2 -0.775
    endloop
  endfacet
  facet normal -0.707107 -7.04165e-17 0.707107
    outer loop
      vertex 121.342 7 -0.775
      vertex 120.775 7 -1.34234
      vertex 121.342 4.2 -0.775
    endloop
  endfacet
  facet normal -0.707107 -7.04165e-17 0.707107
    outer loop
      vertex 121.342 4.2 -0.775
      vertex 120.775 7 -1.34234
      vertex 120.775 4.2 -1.34234
    endloop
  endfacet
  facet normal -0.258819 -1.82783e-16 0.965926
    outer loop
      vertex 120.775 4.2 -1.34234
      vertex 120.775 7 -1.34234
      vertex 120 7 -1.55
    endloop
  endfacet
  facet normal -0.258819 -1.82783e-16 0.965926
    outer loop
      vertex 120 4.2 -1.55
      vertex 120.775 4.2 -1.34234
      vertex 120 7 -1.55
    endloop
  endfacet
  facet normal 0.258819 -2.46174e-16 0.965926
    outer loop
      vertex 120 4.2 -1.55
      vertex 120 7 -1.55
      vertex 119.225 7 -1.34234
    endloop
  endfacet
  facet normal 0.258819 -2.46174e-16 0.965926
    outer loop
      vertex 119.225 4.2 -1.34234
      vertex 120 4.2 -1.55
      vertex 119.225 7 -1.34234
    endloop
  endfacet
  facet normal 0.707107 -2.43602e-16 0.707107
    outer loop
      vertex 119.225 4.2 -1.34234
      vertex 119.225 7 -1.34234
      vertex 118.658 7 -0.775
    endloop
  endfacet
  facet normal 0.707107 -2.43602e-16 0.707107
    outer loop
      vertex 118.658 4.2 -0.775
      vertex 119.225 4.2 -1.34234
      vertex 118.658 7 -0.775
    endloop
  endfacet
  facet normal 0.92388 -1.98112e-16 0.382683
    outer loop
      vertex 124.33 7 2.5
      vertex 124.33 4.2 2.5
      vertex 124.83 4.2 1.2941
    endloop
  endfacet
  facet normal 0.92388 -1.98112e-16 0.382683
    outer loop
      vertex 124.83 7 1.2941
      vertex 124.33 7 2.5
      vertex 124.83 4.2 1.2941
    endloop
  endfacet
  facet normal 0.5 -0.866025 0
    outer loop
      vertex 116.5 4.2 -3.5
      vertex 116.5 4.2 3.5
      vertex 112.863 2.1 1.99338
    endloop
  endfacet
  facet normal 0.5 -0.866025 0
    outer loop
      vertex 112.863 2.1 -1.99338
      vertex 116.5 4.2 -3.5
      vertex 112.863 2.1 1.99338
    endloop
  endfacet
  facet normal 1 3.6203e-08 0
    outer loop
      vertex 112.863 2.1 1.99338
      vertex 112.863 -2.1 1.99338
      vertex 112.863 -2.1 -1.99338
    endloop
  endfacet
  facet normal 1 3.6203e-08 0
    outer loop
      vertex 112.863 2.1 -1.99338
      vertex 112.863 2.1 1.99338
      vertex 112.863 -2.1 -1.99338
    endloop
  endfacet
  facet normal 0.92388 -2.81661e-17 -0.382683
    outer loop
      vertex 124.83 -7 -1.2941
      vertex 124.33 -7 -2.5
      vertex 124.33 -4.2 -2.5
    endloop
  endfacet
  facet normal 0.92388 -2.81661e-17 -0.382683
    outer loop
      vertex 124.83 -4.2 -1.2941
      vertex 124.83 -7 -1.2941
      vertex 124.33 -4.2 -2.5
    endloop
  endfacet
  facet normal 0.991445 -9.24303e-17 -0.130526
    outer loop
      vertex 125 -7 -1.55431e-15
      vertex 124.83 -7 -1.2941
      vertex 124.83 -4.2 -1.2941
    endloop
  endfacet
  facet normal 0.991445 -9.24303e-17 -0.130526
    outer loop
      vertex 125 -4.2 -9.32587e-16
      vertex 125 -7 -1.55431e-15
      vertex 124.83 -4.2 -1.2941
    endloop
  endfacet
  facet normal 0.991445 -1.50396e-16 0.130526
    outer loop
      vertex 124.83 -4.2 1.29409
      vertex 124.83 -7 1.29409
      vertex 125 -7 -1.55431e-15
    endloop
  endfacet
  facet normal 0.991445 -1.50396e-16 0.130526
    outer loop
      vertex 125 -4.2 -9.32587e-16
      vertex 124.83 -4.2 1.29409
      vertex 125 -7 -1.55431e-15
    endloop
  endfacet
  facet normal 0.92388 -1.98112e-16 0.382683
    outer loop
      vertex 124.33 -4.2 2.5
      vertex 124.33 -7 2.5
      vertex 124.83 -7 1.29409
    endloop
  endfacet
  facet normal 0.92388 -1.98112e-16 0.382683
    outer loop
      vertex 124.83 -4.2 1.29409
      vertex 124.33 -4.2 2.5
      vertex 124.83 -7 1.29409
    endloop
  endfacet
  facet normal 0.707107 -2.43602e-16 0.707107
    outer loop
      vertex 119.225 -7 -1.34234
      vertex 119.225 -4.2 -1.34234
      vertex 118.658 -4.2 -0.775
    endloop
  endfacet
  facet normal 0.707107 -2.43602e-16 0.707107
    outer loop
      vertex 118.658 -7 -0.775
      vertex 119.225 -7 -1.34234
      vertex 118.658 -4.2 -0.775
    endloop
  endfacet
  facet normal 0.965926 -1.75757e-16 0.258819
    outer loop
      vertex 118.658 -7 -0.775
      vertex 118.658 -4.2 -0.775
      vertex 118.45 -4.2 -9.32587e-16
    endloop
  endfacet
  facet normal 0.965926 -1.75757e-16 0.258819
    outer loop
      vertex 118.45 -7 -1.55431e-15
      vertex 118.658 -7 -0.775
      vertex 118.45 -4.2 -9.32587e-16
    endloop
  endfacet
  facet normal 0.965926 -6.08184e-17 -0.258819
    outer loop
      vertex 118.45 -4.2 -9.32587e-16
      vertex 118.658 -4.2 0.775
      vertex 118.658 -7 0.775
    endloop
  endfacet
  facet normal 0.965926 -6.08184e-17 -0.258819
    outer loop
      vertex 118.45 -7 -1.55431e-15
      vertex 118.45 -4.2 -9.32587e-16
      vertex 118.658 -7 0.775
    endloop
  endfacet
  facet normal 0.707107 7.04165e-17 -0.707107
    outer loop
      vertex 118.658 -4.2 0.775
      vertex 119.225 -4.2 1.34234
      vertex 119.225 -7 1.34234
    endloop
  endfacet
  facet normal 0.707107 7.04165e-17 -0.707107
    outer loop
      vertex 118.658 -7 0.775
      vertex 118.658 -4.2 0.775
      vertex 119.225 -7 1.34234
    endloop
  endfacet
  facet normal 0.258819 1.82783e-16 -0.965926
    outer loop
      vertex 120 -4.2 1.55
      vertex 120 -7 1.55
      vertex 119.225 -4.2 1.34234
    endloop
  endfacet
  facet normal 0.258819 1.82783e-16 -0.965926
    outer loop
      vertex 119.225 -4.2 1.34234
      vertex 120 -7 1.55
      vertex 119.225 -7 1.34234
    endloop
  endfacet
  facet normal -0.258819 2.46174e-16 -0.965926
    outer loop
      vertex 120.775 -4.2 1.34234
      vertex 120.775 -7 1.34234
      vertex 120 -4.2 1.55
    endloop
  endfacet
  facet normal -0.258819 2.46174e-16 -0.965926
    outer loop
      vertex 120 -4.2 1.55
      vertex 120.775 -7 1.34234
      vertex 120 -7 1.55
    endloop
  endfacet
  facet normal -0.707107 2.43602e-16 -0.707107
    outer loop
      vertex 121.342 -4.2 0.775
      vertex 121.342 -7 0.775
      vertex 120.775 -4.2 1.34234
    endloop
  endfacet
  facet normal -0.707107 2.43602e-16 -0.707107
    outer loop
      vertex 120.775 -4.2 1.34234
      vertex 121.342 -7 0.775
      vertex 120.775 -7 1.34234
    endloop
  endfacet
  facet normal -0.965926 1.75757e-16 -0.258819
    outer loop
      vertex 121.55 -4.2 -9.32587e-16
      vertex 121.55 -7 -1.55431e-15
      vertex 121.342 -4.2 0.775
    endloop
  endfacet
  facet normal -0.965926 1.75757e-16 -0.258819
    outer loop
      vertex 121.342 -4.2 0.775
      vertex 121.55 -7 -1.55431e-15
      vertex 121.342 -7 0.775
    endloop
  endfacet
  facet normal -0.965926 6.08184e-17 0.258819
    outer loop
      vertex 121.55 -4.2 -9.32587e-16
      vertex 121.342 -4.2 -0.775
      vertex 121.55 -7 -1.55431e-15
    endloop
  endfacet
  facet normal -0.965926 6.08184e-17 0.258819
    outer loop
      vertex 121.55 -7 -1.55431e-15
      vertex 121.342 -4.2 -0.775
      vertex 121.342 -7 -0.775
    endloop
  endfacet
  facet normal -0.707107 -7.04165e-17 0.707107
    outer loop
      vertex 121.342 -4.2 -0.775
      vertex 120.775 -4.2 -1.34234
      vertex 121.342 -7 -0.775
    endloop
  endfacet
  facet normal -0.707107 -7.04165e-17 0.707107
    outer loop
      vertex 121.342 -7 -0.775
      vertex 120.775 -4.2 -1.34234
      vertex 120.775 -7 -1.34234
    endloop
  endfacet
  facet normal -0.258819 -1.82783e-16 0.965926
    outer loop
      vertex 120.775 -7 -1.34234
      vertex 120.775 -4.2 -1.34234
      vertex 120 -4.2 -1.55
    endloop
  endfacet
  facet normal -0.258819 -1.82783e-16 0.965926
    outer loop
      vertex 120 -7 -1.55
      vertex 120.775 -7 -1.34234
      vertex 120 -4.2 -1.55
    endloop
  endfacet
  facet normal 0.258819 -2.46174e-16 0.965926
    outer loop
      vertex 120 -7 -1.55
      vertex 120 -4.2 -1.55
      vertex 119.225 -4.2 -1.34234
    endloop
  endfacet
  facet normal 0.258819 -2.46174e-16 0.965926
    outer loop
      vertex 119.225 -7 -1.34234
      vertex 120 -7 -1.55
      vertex 119.225 -4.2 -1.34234
    endloop
  endfacet
  facet normal -1 0 -2.22045e-16
    outer loop
      vertex 111 2.42487 1.4
      vertex 111 2.8 -2.22045e-15
      vertex 111 1.4 2.42487
    endloop
  endfacet
  facet normal -1 0 -2.22045e-16
    outer loop
      vertex 111 1.4 2.42487
      vertex 111 2.8 -2.22045e-15
      vertex 111 2.60735 -0.718994
    endloop
  endfacet
  facet normal -1 0 -2.22045e-16
    outer loop
      vertex 111 1.4 2.42487
      vertex 111 2.60735 -0.718994
      vertex 111 -2.60735 0.718994
    endloop
  endfacet
  facet normal -1 0 -2.22045e-16
    outer loop
      vertex 111 1.4 2.42487
      vertex 111 -2.60735 0.718994
      vertex 111 -2.42487 1.4
    endloop
  endfacet
  facet normal -1 0 -2.22045e-16
    outer loop
      vertex 111 1.4 2.42487
      vertex 111 -2.42487 1.4
      vertex 111 -1.4 2.42487
    endloop
  endfacet
  facet normal -1 0 -2.22045e-16
    outer loop
      vertex 111 1.4 2.42487
      vertex 111 -1.4 2.42487
      vertex 111 1.10215e-15 2.8
    endloop
  endfacet
  facet normal 1 -1.22461e-16 -2.22045e-16
    outer loop
      vertex 111 -2.42487 1.4
      vertex 111 -2.60735 0.718994
      vertex 111 2.60735 -0.718994
    endloop
  endfacet
  facet normal 1 -1.22461e-16 -2.22045e-16
    outer loop
      vertex 111 2.42487 1.4
      vertex 111 -2.42487 1.4
      vertex 111 2.8 -2.22045e-15
    endloop
  endfacet
  facet normal 1 -1.22461e-16 -2.22045e-16
    outer loop
      vertex 111 2.8 -2.22045e-15
      vertex 111 -2.42487 1.4
      vertex 111 2.60735 -0.718994
    endloop
  endfacet
  facet normal 1 -1.22461e-16 -2.22045e-16
    outer loop
      vertex 111 1.4 2.42487
      vertex 111 -2.42487 1.4
      vertex 111 2.42487 1.4
    endloop
  endfacet
  facet normal 1 -1.22461e-16 -2.22045e-16
    outer loop
      vertex 111 1.10215e-15 2.8
      vertex 111 -2.42487 1.4
      vertex 111 1.4 2.42487
    endloop
  endfacet
  facet normal 1 -1.22461e-16 -2.22045e-16
    outer loop
      vertex 111 -1.4 2.42487
      vertex 111 -2.42487 1.4
      vertex 111 1.10215e-15 2.8
    endloop
  endfacet
endsolid OpenSCAD_Model
